<?xml version="1.0" encoding="UTF-8"?>
<svg id="Layer_1" xmlns="http://www.w3.org/2000/svg" version="1.1" viewBox="0 0 720 360">
  <!-- Generator: Adobe Illustrator 29.0.0, SVG Export Plug-In . SVG Version: 2.1.0 Build 186)  -->
  <defs>
    <style>
      .st0 {
        fill: #f3f4c0;
      }
    </style>
  </defs>
  <g>
    <path class="st0" d="M28.92,232.35l.94-4.69c9.18,0,14.66-4.18,16.43-12.54l14.4-68.04c1.98-9.19-1.98-13.79-11.89-13.79-3.13,0-6.21.55-9.23,1.65-3.03,1.1-5.71,2.57-8.06,4.41-2.35,1.84-4.36,3.96-6.03,6.38-1.67,2.41-2.77,4.88-3.29,7.4-.63,3.15-.42,5.9.63,8.25,1.04,2.35,3.03,3.79,5.95,4.31.83-3.76,3.29-5.63,7.36-5.63,4.38,0,6.05,2.3,5.01,6.89-1.04,4.91-4.59,7.36-10.64,7.36-5.74,0-10.1-1.93-13.07-5.79-2.97-3.86-3.78-9.08-2.43-15.65.83-3.65,2.27-6.97,4.3-9.94s4.59-5.53,7.67-7.67c3.08-2.14,6.55-3.78,10.41-4.93,3.86-1.15,7.98-1.72,12.36-1.72h80.44l-3.76,28.8-5.32.47c.1-5.32-.47-9.49-1.72-12.52-1.25-3.02-3.08-5.27-5.48-6.73-2.4-1.46-5.35-2.37-8.84-2.74-3.5-.36-7.49-.55-11.97-.55h-4.85c-6.37,0-9.97,2.14-10.8,6.42l-5.95,27.55c-.84,3.86,1.72,5.79,7.67,5.79h2.5c3.44,0,6.21-.24,8.3-.7,2.09-.47,3.83-1.3,5.24-2.5,1.41-1.2,2.61-2.82,3.6-4.85.99-2.03,2.16-4.67,3.52-7.9h5.48l-8.45,39.91h-5.48l.94-4.69c.31-1.35.37-2.76.16-4.23-.21-1.46-.86-2.82-1.96-4.07-1.1-1.25-2.77-2.27-5.01-3.05-2.24-.78-5.24-1.17-9-1.17h-7.2c-1.98,0-3.29,1.57-3.91,4.7l-6.1,28.64c-1.78,8.35,2.71,12.52,13.46,12.52l-.94,4.69H28.92Z"/>
    <path class="st0" d="M180.73,225.78c-1.57,5.53-5.74,8.3-12.52,8.3-5.95,0-9.7-3.39-11.27-10.17-7.51,6.78-15.49,10.17-23.95,10.17-5.53,0-9.6-1.17-12.21-3.52-2.61-2.35-3.91-6.08-3.91-11.19,0-12.83,12.94-21.6,38.81-26.29v-6.1c0-10.22-3.99-15.34-11.97-15.34-3.46,0-6.46.57-8.98,1.72-2.52,1.15-3.78,3.34-3.78,6.57.63.42,1.09,1.07,1.41,1.96.31.89.47,1.8.47,2.74,0,3.97-2.4,5.95-7.2,5.95-1.78,0-3.29-.57-4.54-1.72-1.25-1.15-1.88-2.92-1.88-5.32s.73-4.7,2.2-6.89c1.46-2.19,3.38-4.09,5.73-5.71,2.35-1.62,5.08-2.92,8.16-3.91,3.09-.99,6.25-1.49,9.5-1.49,8.69,0,14.86,1.62,18.53,4.85,3.66,3.24,5.5,8.61,5.5,16.12v33.96c0,3.86,1.77,5.79,5.32,5.79,1.67,0,3.29-.57,4.85-1.72l1.72,1.25ZM156.31,198.39c-3.25.31-6.46.86-9.61,1.64-3.15.78-5.96,1.88-8.42,3.29-2.47,1.41-4.46,3.21-5.98,5.4-1.52,2.19-2.28,4.9-2.28,8.14,0,6.78,3.31,10.17,9.92,10.17,2.94,0,5.38-.44,7.32-1.33,1.94-.89,3.51-2.06,4.72-3.52,1.21-1.46,2.15-3.08,2.83-4.85.68-1.77,1.18-3.55,1.5-5.32v-13.62Z"/>
    <path class="st0" d="M250.06,219.05c-1.15,1.67-2.53,3.39-4.15,5.16-1.62,1.77-3.34,3.36-5.16,4.77-1.83,1.41-3.63,2.56-5.4,3.44-1.78.89-3.34,1.33-4.7,1.33-1.25,0-2.17-.39-2.74-1.18-.57-.78-.86-2.27-.86-4.46,0-.63.16-1.41.47-2.35l6.26-32.87c.73-3.55,1.3-6.47,1.72-8.76.42-2.29.63-4.12.63-5.48,0-2.71-.89-4.07-2.66-4.07-4.49,0-13.15,9.6-25.98,28.8l-5.79,27.7-10.49,3.76,10.17-51.02c.1-.52.18-1.09.24-1.72.05-.63.08-1.25.08-1.88,0-1.88-.37-2.82-1.1-2.82-1.15,0-3.6,2.14-7.36,6.42l-2.03-3.44c1.25-1.67,2.66-3.36,4.23-5.09s3.18-3.29,4.85-4.7c1.67-1.41,3.34-2.58,5.01-3.52,1.67-.94,3.18-1.41,4.54-1.41,1.04,0,1.85.39,2.43,1.17.57.78.86,2.11.86,3.99,0,.84-.05,1.78-.16,2.82-.11,1.04-.31,2.43-.63,4.15-.31,1.72-.73,3.86-1.25,6.42-.52,2.56-1.2,5.77-2.03,9.62,13.15-19.09,23.89-28.64,32.24-28.64,1.46,0,2.76.84,3.91,2.5,1.15,1.67,1.72,4.28,1.72,7.83,0,2.19-.21,4.59-.63,7.2-.42,2.61-.89,5.16-1.41,7.67l-4.23,22.54c-.42,1.98-.68,3.52-.78,4.62-.11,1.1-.16,1.91-.16,2.43,0,1.36.42,2.03,1.25,2.03,1.04,0,3.49-2.09,7.36-6.26l1.72,3.29Z"/>
    <path class="st0" d="M287.62,219.05c-1.15,1.67-2.58,3.39-4.3,5.16-1.72,1.77-3.55,3.36-5.48,4.77-1.93,1.41-3.89,2.56-5.87,3.44-1.98.89-3.76,1.33-5.32,1.33-1.36,0-2.53-.47-3.52-1.41-.99-.94-1.49-2.4-1.49-4.38v-2.19l9.39-52.59h-9.39l2.66-6.26h7.83l2.82-13.83,8.76-8.7,3.6,1.87-4.23,20.67h8.76c1.15,0,2.19-.11,3.13-.34.94-.23,1.82-.48,2.66-.75l-4.07,6.73-11.89.47-7.04,39.91c-.21.84-.39,1.85-.55,3.05-.16,1.2-.23,2.22-.23,3.05,0,1.15.13,2.09.39,2.82.26.73.81,1.1,1.64,1.1,1.15,0,2.66-.68,4.54-2.03,1.88-1.35,3.65-3.08,5.32-5.16l1.88,3.29Z"/>
    <path class="st0" d="M355.08,219.05c-1.04,1.67-2.38,3.39-3.99,5.16-1.62,1.77-3.31,3.36-5.09,4.77-1.78,1.41-3.52,2.56-5.24,3.44-1.72.89-3.21,1.33-4.46,1.33-1.04,0-1.88-.34-2.5-1.02s-1.04-1.96-1.25-3.83c0-.52.02-1.04.08-1.56.05-.52.13-1.04.24-1.57l1.88-15.65c-1.36,2.29-3.05,4.83-5.09,7.59-2.03,2.77-4.28,5.38-6.73,7.82-2.45,2.45-4.96,4.49-7.51,6.1-2.56,1.62-5.09,2.43-7.59,2.43-1.15,0-2.3-.16-3.44-.47-1.15-.31-2.19-1.07-3.13-2.27-.94-1.2-1.72-2.97-2.35-5.32-.63-2.35-.94-5.56-.94-9.62,0-6.78,1.17-13.28,3.52-19.49,2.35-6.21,5.42-11.66,9.23-16.35,3.81-4.7,8.06-8.43,12.76-11.19,4.7-2.76,9.39-4.15,14.09-4.15,1.88,0,3.36.18,4.46.55,1.1.37,2.11.76,3.05,1.17.94.42,1.88.81,2.82,1.17.94.37,2.14.55,3.6.55l-6.26,44.29c-.11.84-.21,1.77-.31,2.82-.11,1.04-.16,2.03-.16,2.97,0,.84.08,1.59.23,2.27s.49,1.02,1.02,1.02c1.04,0,3.34-2.09,6.89-6.26l2.19,3.29ZM340.21,174.76c-1.04-1.04-2.17-1.82-3.36-2.35-1.2-.52-2.69-.78-4.46-.78-3.44,0-6.52,1.51-9.23,4.54-2.71,3.03-5.01,6.73-6.89,11.11s-3.31,9.05-4.3,14.01c-.99,4.96-1.49,9.31-1.49,13.07,0,2.5.08,4.46.24,5.87.16,1.41.42,2.43.78,3.05.37.63.83,1.02,1.41,1.17.57.16,1.22.23,1.96.23,1.15,0,2.71-.91,4.7-2.74,1.98-1.82,4.07-4.09,6.26-6.81,2.19-2.71,4.3-5.71,6.34-9s3.68-6.39,4.93-9.31l3.13-22.07Z"/>
    <path class="st0" d="M398.43,212.01c0,3.13-.78,6.02-2.35,8.69-1.57,2.66-3.52,4.98-5.87,6.97-2.35,1.98-4.91,3.55-7.67,4.69-2.77,1.15-5.4,1.72-7.9,1.72s-4.67-.39-6.49-1.17c-1.83-.78-3.31-1.72-4.46-2.82-1.15-1.1-1.98-2.27-2.5-3.52-.52-1.25-.78-2.29-.78-3.13,0-2.5.7-4.33,2.11-5.48,1.41-1.15,2.48-1.72,3.21-1.72,1.46,0,2.45.57,2.97,1.72.52,1.15,1.1,2.4,1.72,3.76.63,1.36,1.59,2.61,2.89,3.76,1.3,1.15,3.42,1.72,6.34,1.72,2.71,0,4.93-.78,6.65-2.35,1.72-1.56,2.58-4.07,2.58-7.51,0-2.19-.5-4.09-1.49-5.71-.99-1.62-2.24-3.08-3.76-4.38-1.51-1.3-3.16-2.58-4.93-3.83s-3.42-2.63-4.93-4.15c-1.51-1.51-2.77-3.21-3.76-5.09-.99-1.88-1.49-4.17-1.49-6.89,0-3.13.65-6,1.96-8.61,1.3-2.61,3.03-4.9,5.16-6.89,2.14-1.98,4.59-3.52,7.36-4.62,2.76-1.1,5.66-1.64,8.69-1.64,2.09,0,3.78.34,5.09,1.02,1.3.68,2.32,1.51,3.05,2.5.73.99,1.22,2.01,1.49,3.05.26,1.04.39,1.88.39,2.5,0,1.36-.42,2.72-1.25,4.07-.84,1.36-1.83,2.03-2.97,2.03-1.56,0-2.71-.44-3.44-1.33-.73-.89-1.39-1.82-1.96-2.82-.58-.99-1.31-1.93-2.19-2.82-.89-.89-2.32-1.33-4.3-1.33-.73,0-1.57.11-2.5.31-.94.21-1.8.63-2.58,1.25-.78.63-1.44,1.49-1.96,2.58-.52,1.1-.78,2.48-.78,4.15,0,3.03,1.07,5.66,3.21,7.9,2.14,2.24,4.51,4.46,7.12,6.65s4.98,4.59,7.12,7.2c2.14,2.61,3.21,5.79,3.21,9.55Z"/>
    <path class="st0" d="M434.11,219.05c-1.15,1.67-2.53,3.39-4.15,5.16-1.62,1.77-3.31,3.36-5.09,4.77-1.78,1.41-3.55,2.56-5.32,3.44-1.77.89-3.29,1.33-4.54,1.33-1.67,0-2.72-.58-3.13-1.72-.42-1.15-.63-2.45-.63-3.91,0-.52.02-.94.08-1.25.05-.31.13-.68.23-1.1l8.76-46.17c.1-.21.16-.52.16-.94,0-.83-.31-1.25-.94-1.25-1.15,0-3.6,2.14-7.36,6.42l-1.88-3.44c1.15-1.67,2.56-3.36,4.23-5.09,1.67-1.72,3.39-3.29,5.16-4.7,1.77-1.41,3.55-2.58,5.32-3.52,1.77-.94,3.34-1.41,4.69-1.41,1.15,0,2.01.42,2.58,1.25.57.84.86,2.35.86,4.54v1.09c0,.31-.05.73-.16,1.25l-8.3,39.13c-.21,1.15-.42,2.27-.63,3.36-.21,1.1-.31,2.11-.31,3.05,0,1.77.41,2.66,1.25,2.66,1.15,0,3.6-2.09,7.36-6.26l1.72,3.29Z"/>
    <path class="st0" d="M458.37,235.48l-4.85-55.56c0-1.77-.47-2.66-1.41-2.66-.52,0-1.36.52-2.5,1.57-1.15,1.04-2.35,2.61-3.6,4.7l-2.35-3.13c.63-1.67,1.51-3.36,2.66-5.09,1.15-1.72,2.43-3.29,3.83-4.7,1.41-1.41,2.87-2.58,4.38-3.52,1.51-.94,2.89-1.41,4.15-1.41.31,0,.76.16,1.33.47.57.31,1.18.78,1.8,1.41s1.2,1.46,1.72,2.5c.52,1.04.83,2.3.94,3.76l2.82,45.07c2.08-3.13,4.3-6.52,6.65-10.17,2.35-3.65,4.48-7.3,6.42-10.95,1.93-3.65,3.52-7.12,4.77-10.41,1.25-3.29,1.88-6.13,1.88-8.53,0-.94-.11-1.69-.31-2.27-.21-.57-.45-1.07-.7-1.49-.26-.42-.5-.83-.7-1.25-.21-.42-.31-.94-.31-1.57,0-2.09.63-3.68,1.88-4.77,1.25-1.1,2.61-1.64,4.07-1.64,2.19,0,3.73.76,4.62,2.27.89,1.51,1.33,3.47,1.33,5.87,0,1.78-.31,3.68-.94,5.71-.63,2.03-1.83,4.67-3.6,7.9-1.77,3.24-4.2,7.36-7.28,12.37-3.08,5.01-7.07,11.32-11.97,18.94l-9.86,15.18-4.85,1.41Z"/>
    <path class="st0" d="M557.59,219.05c-1.04,1.67-2.38,3.39-3.99,5.16-1.62,1.77-3.31,3.36-5.09,4.77-1.78,1.41-3.52,2.56-5.24,3.44-1.72.89-3.21,1.33-4.46,1.33-1.04,0-1.88-.34-2.5-1.02-.63-.68-1.04-1.96-1.25-3.83,0-.52.02-1.04.08-1.56.05-.52.13-1.04.23-1.57l1.88-15.65c-1.36,2.29-3.05,4.83-5.09,7.59-2.03,2.77-4.28,5.38-6.73,7.82s-4.96,4.49-7.51,6.1c-2.56,1.62-5.09,2.43-7.59,2.43-1.15,0-2.3-.16-3.44-.47-1.15-.31-2.19-1.07-3.13-2.27-.94-1.2-1.72-2.97-2.35-5.32-.63-2.35-.94-5.56-.94-9.62,0-6.78,1.18-13.28,3.52-19.49,2.35-6.21,5.42-11.66,9.23-16.35s8.06-8.43,12.76-11.19c4.69-2.76,9.39-4.15,14.09-4.15,1.88,0,3.36.18,4.46.55,1.1.37,2.11.76,3.05,1.17.94.42,1.88.81,2.82,1.17.94.37,2.14.55,3.6.55l-6.26,44.29c-.11.84-.21,1.77-.31,2.82-.11,1.04-.16,2.03-.16,2.97,0,.84.08,1.59.23,2.27s.49,1.02,1.02,1.02c1.04,0,3.34-2.09,6.89-6.26l2.19,3.29ZM542.72,174.76c-1.04-1.04-2.17-1.82-3.36-2.35-1.2-.52-2.69-.78-4.46-.78-3.44,0-6.52,1.51-9.23,4.54-2.72,3.03-5.01,6.73-6.89,11.11-1.88,4.38-3.31,9.05-4.31,14.01-.99,4.96-1.49,9.31-1.49,13.07,0,2.5.08,4.46.23,5.87.16,1.41.42,2.43.78,3.05.36.63.83,1.02,1.41,1.17s1.23.23,1.96.23c1.15,0,2.71-.91,4.69-2.74,1.98-1.82,4.07-4.09,6.26-6.81,2.19-2.71,4.31-5.71,6.34-9,2.03-3.29,3.68-6.39,4.93-9.31l3.13-22.07ZM527.7,151.28c-5.11,0-7.67-3.03-7.67-9.08s2.76-8.76,8.3-8.76c5.01,0,7.51,2.92,7.51,8.76s-2.72,9.08-8.14,9.08ZM561.59,151.28c-5.06,0-7.59-3.03-7.59-9.08s2.74-8.76,8.22-8.76c5.06,0,7.59,2.92,7.59,8.76s-2.74,9.08-8.21,9.08Z"/>
    <path class="st0" d="M569.17,234.86l9.08-51.02c.1-.63.18-1.22.24-1.8.05-.57.08-1.17.08-1.8,0-1.88-.42-2.82-1.25-2.82-.52,0-1.51.55-2.97,1.64-1.46,1.1-3.18,2.69-5.16,4.77l-1.72-3.44c1.15-1.67,2.48-3.36,3.99-5.09s3.08-3.29,4.7-4.7c1.62-1.41,3.23-2.58,4.85-3.52s3.15-1.41,4.62-1.41c.94,0,1.72.29,2.35.86.63.57.94,1.7.94,3.37,0,1.25-.11,3.44-.31,6.57-.21,3.13-.94,7.04-2.19,11.74,1.36-2.82,2.84-5.61,4.46-8.37,1.62-2.76,3.34-5.24,5.16-7.43,1.82-2.19,3.65-3.99,5.48-5.4,1.82-1.41,3.62-2.11,5.4-2.11s3.23.57,4.38,1.72c1.15,1.15,1.72,2.87,1.72,5.16,0,2.71-.52,4.91-1.57,6.57-1.04,1.67-2.5,2.5-4.38,2.5-1.04,0-1.8-.16-2.27-.47-.47-.31-.89-.68-1.25-1.1-.37-.42-.78-.78-1.25-1.1-.47-.31-1.23-.47-2.27-.47-1.56,0-3.5,1.8-5.79,5.4-2.3,3.6-5.32,9.16-9.08,16.67l-5.48,31.3-10.49,3.76Z"/>
    <path class="st0" d="M636.94,219.05c-1.15,1.67-2.56,3.39-4.23,5.16-1.67,1.77-3.42,3.36-5.24,4.77-1.83,1.41-3.63,2.56-5.4,3.44-1.78.89-3.29,1.33-4.54,1.33-1.15,0-2.06-.42-2.74-1.25-.68-.83-1.07-2.4-1.17-4.7,0-.52.1-1.3.31-2.35l14.24-82.01c.1-.52.18-1.12.23-1.8.05-.68.08-1.23.08-1.64-.31-4.28-2.5-6.42-6.57-6.42l.47-4.22,19.41-4.85-14.87,88.43c-.21,1.04-.39,2.11-.55,3.21s-.23,2.11-.23,3.05c0,1.88.41,2.82,1.25,2.82,1.46,0,3.96-2.09,7.51-6.26l2.03,3.29Z"/>
    <path class="st0" d="M702.83,219.05c-1.15,1.67-2.5,3.39-4.07,5.16-1.57,1.77-3.21,3.36-4.93,4.77-1.72,1.41-3.44,2.56-5.16,3.44s-3.21,1.33-4.46,1.33c-1.15,0-2.03-.37-2.66-1.1-.63-.73-.99-2.09-1.09-4.07,0-.52.02-.99.08-1.41.05-.41.08-.89.08-1.41l2.03-15.02c-1.36,2.09-3.18,4.46-5.48,7.12-2.3,2.66-4.77,5.19-7.43,7.59-2.66,2.4-5.38,4.44-8.14,6.1s-5.4,2.5-7.9,2.5c-1.15,0-2.3-.16-3.44-.47-1.15-.31-2.19-1.1-3.13-2.35s-1.72-3.08-2.35-5.48c-.63-2.4-.94-5.68-.94-9.86,0-6.78,1.07-13.23,3.21-19.33,2.14-6.1,4.95-11.48,8.45-16.12,3.5-4.64,7.49-8.35,11.97-11.11,4.49-2.76,9.08-4.15,13.77-4.15,1.35,0,2.58.23,3.68.7s2.22,1.07,3.36,1.8l3.91-29.42c0-1.57-.7-2.74-2.11-3.52-1.41-.78-3.73-1.17-6.97-1.17l.63-4.85,21.91-4.23-12.36,88.43c-.21,1.56-.44,2.92-.7,4.07-.26,1.15-.39,2.09-.39,2.82,0,1.57.37,2.35,1.1,2.35,1.04,0,3.6-2.14,7.67-6.42l1.88,3.29ZM686.86,180.08c-.73-2.71-2.09-4.8-4.07-6.26-1.98-1.46-4.44-2.19-7.36-2.19-3.44,0-6.39,1.51-8.84,4.54-2.45,3.03-4.46,6.73-6.03,11.11-1.57,4.38-2.72,9.05-3.44,14.01-.73,4.96-1.1,9.31-1.1,13.07,0,2.4.1,4.28.31,5.63.21,1.36.49,2.4.86,3.13.36.73.83,1.17,1.41,1.33s1.28.23,2.11.23c1.15,0,2.82-.91,5.01-2.74,2.19-1.82,4.48-4.09,6.89-6.81,2.4-2.71,4.67-5.69,6.81-8.92,2.14-3.23,3.78-6.2,4.93-8.92l2.5-17.22Z"/>
  </g>
  <polygon class="st0" points="421.51 126.08 429.36 135.2 440.46 130.55 434.21 140.83 442.06 149.95 430.35 147.19 424.1 157.47 423.11 145.48 411.4 142.72 422.5 138.07 421.51 126.08"/>
</svg>