<?xml version="1.0" encoding="UTF-8"?>
<svg id="Layer_1" data-name="Layer 1" xmlns="http://www.w3.org/2000/svg" viewBox="0 0 720 360">
  <defs>
    <style>
      .cls-1 {
        fill: #f2e7f2;
      }
    </style>
  </defs>
  <g>
    <path class="cls-1" d="M28.9211918,232.3514293l.93887-4.6943499c9.1802825,0,14.6576856-4.180254,16.4332019-12.542747l14.3986528-68.0373066c1.9809561-9.194177-1.982941-13.7942428-11.8946687-13.7942428-3.1302282,0-6.2088484.5528019-9.2338755,1.6534433-3.0270121,1.1026264-5.7126169,2.572464-8.0597918,4.4085205-2.3481674,1.837049-4.3579049,3.9619122-6.0262352,6.3755821-1.6693227,2.4136699-2.7650018,4.8779555-3.2860449,7.3968265-.6262441,3.1500775-.4188194,5.9011848.6262441,8.2533221,1.0410937,2.3531297,3.0250271,3.7882312,5.9468381,4.3092742.8336689-3.7564723,3.2870374-5.6342123,7.3561355-5.6342123,4.381724,0,6.0500543,2.2965593,5.0079682,6.8857081-1.044071,4.9057445-4.5921262,7.3561355-10.6421804,7.3561355-5.7394134,0-10.0953333-1.929348-13.0687524-5.7910214-2.9734191-3.858696-3.7832688-9.0770663-2.4255795-15.6501486.8336689-3.6512713,2.2687704-6.9651051,4.3033194-9.9385242s4.5901412-5.5290112,7.6697538-7.6687614c3.0756427-2.1367728,6.5462858-3.7802915,10.4069667-4.9295636,3.858696-1.1472872,7.9823797-1.7219233,12.3641037-1.7219233h80.4440862l-3.7554799,28.7973056-5.3215865.469435c.1032161-5.3215865-.469435-9.4929083-1.7209308-12.5209129-1.2524883-3.0240347-3.0796126-5.267001-5.4783956-6.7288989-2.4007679-1.459913-5.348383-2.3719865-8.8428451-2.7391978-3.496447-.3642339-7.4871407-.5478396-11.9720808-.5478396h-4.8521515c-6.3656575,0-9.9653207,2.1397502-10.7989896,6.4162731l-5.9468381,27.5458098c-.8366463,3.860681,1.7209308,5.7910214,7.6687614,5.7910214h2.5039841c3.442854,0,6.2068634-.2352137,8.2950055-.7046487,2.0861572-.469435,3.8338845-1.3031039,5.2431819-2.5039841,1.408305-1.1988953,2.6062078-2.8176024,3.5996632-4.8521515.990478-2.0345491,2.1635693-4.6675534,3.5212586-7.9029826h5.4774031l-8.4508222,39.9079286h-5.4783956l.93887-4.6943499c.3136183-1.3537195.3652264-2.7630169.1568091-4.2259073-.2104022-1.4589206-.8604654-2.8166099-1.9561445-4.0690982-1.0956791-1.2514958-2.7659943-2.2687704-5.0079682-3.0518236-2.2449512-.7820608-5.2431819-1.1740837-8.9996542-1.1740837h-7.1993264c-1.982941,0-3.2860449,1.5651141-3.912289,4.6953423l-6.1036473,28.6414889c-1.7755163,8.3485985,2.7114088,12.5209129,13.4587904,12.5209129l-.93887,4.6943499H28.9211918Z"/>
    <path class="cls-1" d="M180.7303129,225.7773546c-1.5651141,5.5319886-5.7394134,8.2950055-12.5209129,8.2950055-5.9468381,0-9.7033105-3.3882686-11.2684246-10.1727455-7.5119522,6.7844769-15.4943319,10.1727455-23.9451541,10.1727455-5.5319886,0-9.6010868-1.1730912-12.208287-3.5212586-2.6091852-2.3461825-3.912289-6.0758583-3.912289-11.1890275,0-12.8345312,12.9357624-21.5979792,38.8132419-26.294314v-6.1036473c0-10.2243535-3.9906936-15.3375228-11.9700959-15.3375228-3.4646882,0-6.4579566.5746361-8.9768276,1.7219233-2.5218484,1.1492721-3.7802915,3.3406304-3.7802915,6.5730823.6252517.4178269,1.0946867,1.0708675,1.408305,1.9561445.3126258.8882544.469435,1.8003278.469435,2.7391978,0,3.9668745-2.4017604,5.9478306-7.1993264,5.9478306-1.7755163,0-3.2870374-.5736436-4.5385332-1.7229157-1.2524883-1.1462947-1.8787324-2.9188336-1.8787324-5.320594,0-2.398783.7314452-4.6953423,2.1983055-6.8857081,1.4648753-2.1913582,3.3753666-4.0939098,5.7304812-5.7126169,2.3541222-1.6167222,5.0764481-2.9198261,8.1649929-3.9132815,3.0855674-.990478,6.2525167-1.4867095,9.4978706-1.4867095,8.6860359,0,14.8631255,1.6187071,18.5263063,4.8521515,3.6631808,3.2354293,5.4952675,8.6076314,5.4952675,16.1195836v33.9630754c0,3.860681,1.7725389,5.790029,5.320594,5.790029,1.6683303,0,3.2870374-.5716587,4.8521515-1.7209308l1.7219233,1.2505033ZM156.3147313,198.3893464c-3.2542861.3136183-6.4559716.8614579-9.6050566,1.6435187-3.1500775.7820608-5.9577552,1.8777399-8.4220408,3.2870374-2.4682554,1.4073125-4.463106,3.2076403-5.9845517,5.3989986-1.5204533,2.1913582-2.2816724,4.904752-2.2816724,8.1381964,0,6.7844769,3.3068866,10.1727455,9.9186749,10.1727455,2.9396753,0,5.3801418-.4426385,7.3213993-1.3299004,1.94225-.885277,3.5143114-2.0583682,4.7221388-3.5212586,1.2088199-1.4609055,2.1526522-3.0766352,2.8344742-4.851159.6828145-1.7745238,1.1810309-3.5470627,1.4966342-5.3215865v-13.616592Z"/>
    <path class="cls-1" d="M250.0617912,219.0484556c-1.1492721,1.6693227-2.531773,3.3922384-4.1475028,5.1647773-1.6196996,1.7745238-3.3406304,3.3644495-5.1647773,4.7737469-1.8271243,1.4073125-3.6264597,2.5565846-5.399991,3.4418616-1.7755163.885277-3.3406304,1.3318853-4.6953423,1.3318853-1.2514958,0-2.1665467-.3910304-2.7382053-1.1750762-.5746361-.7820608-.8614579-2.2687704-.8614579-4.4601286,0-.6252517.1568091-1.4092974.469435-2.3481674l6.2604564-32.8664038c.7294603-3.5450777,1.3040963-6.4668887,1.7219233-8.763448.415842-2.2935819.6262441-4.1207063.6262441-5.4774031,0-2.7124013-.8882544-4.0700906-2.6607932-4.0700906-4.4879176,0-13.147157,9.6010868-25.9806957,28.7973056l-5.790029,27.7016265-10.4863638,3.7574648,10.1727455-51.0225214c.1032161-.5200506.1816207-1.0946867.2352137-1.7209308.0516081-.6262441.0784046-1.2524883.0784046-1.8777399,0-1.8787324-.3672113-2.8176024-1.0956791-2.8176024-1.1492721,0-3.5996632,2.1397502-7.3561355,6.4162731l-2.0345491-3.442854c1.2524883-1.6673378,2.6607932-3.3644495,4.2259073-5.0863727s3.1818363-3.2860449,4.8521515-4.6953423c1.6673378-1.408305,3.337653-2.5823887,5.0079682-3.5212586,1.6673378-.93887,3.1808438-1.408305,4.5385332-1.408305,1.0420861,0,1.8509434.3910304,2.4255795,1.1740837.5726511.7820608.8614579,2.1119612.8614579,3.9906936,0,.8356538-.0545855,1.7755163-.1568091,2.8166099-.1052011,1.044071-.3136183,2.426572-.6262441,4.1475028-.3126258,1.7219233-.7314452,3.8616734-1.2524883,6.4172656-.523028,2.5575771-1.1998877,5.7652174-2.0345491,9.6239134,13.147157-19.0930027,23.8925536-28.639504,32.2411521-28.639504,1.459913,0,2.7630169.8356538,3.912289,2.5039841,1.1472872,1.6703152,1.7219233,4.2795003,1.7219233,7.8255705,0,2.1903658-.2104022,4.5921262-.6262441,7.1993264-.4178269,2.6091852-.8882544,5.1647773-1.408305,7.6687614l-4.2259073,22.5368492c-.4178269,1.982941-.6798371,3.5212586-.7830533,4.6169377-.1052011,1.0956791-.1558167,1.9055289-.1558167,2.4255795,0,1.3576893.415842,2.0345491,1.2514958,2.0345491,1.0420861,0,3.4944621-2.0861572,7.3561355-6.2604564l1.7219233,3.2870374Z"/>
    <path class="cls-1" d="M287.6215523,219.0484556c-1.1492721,1.6693227-2.5823887,3.3922384-4.3043119,5.1647773-1.7209308,1.7745238-3.5480551,3.3644495-5.4774031,4.7737469-1.9313329,1.4073125-3.8884699,2.5565846-5.8684336,3.4418616-1.9839335.885277-3.7564723,1.3318853-5.3215865,1.3318853-1.3576893,0-2.5307806-.4704274-3.5212586-1.4092974-.9934554-.93887-1.4867095-2.3997755-1.4867095-4.3827165v-2.1913582l9.3896922-52.5856506h-9.3896922l2.6598008-6.2604564h7.8255705l2.8176024-13.8329489,8.7644405-8.7039003,3.5996632,1.8658304-4.2259073,20.6710188h8.7644405c1.1462947,0,2.1913582-.1121483,3.1302282-.3423997.93887-.227274,1.8241469-.4783672,2.6607932-.7522869l-4.0700906,6.7288989-11.8936763.4704274-7.0435097,39.908921c-.2104022.8356538-.3910304,1.8539208-.5478396,3.0508312-.1558167,1.2008802-.2342213,2.2191472-.2342213,3.0528161,0,1.1492721.1290202,2.0881421.3910304,2.8166099.2590328.7324377.8068724,1.0956791,1.6435187,1.0956791,1.1472872,0,2.6607932-.6768597,4.5385332-2.0345491,1.8777399-1.3537195,3.6512713-3.0766352,5.3215865-5.1647773l1.8777399,3.2870374Z"/>
    <path class="cls-1" d="M355.0762832,219.0484556c-1.044071,1.6693227-2.3759564,3.3922384-3.9916861,5.1647773-1.6177146,1.7745238-3.3128414,3.3644495-5.0853803,4.7737469-1.7765087,1.4073125-3.5212586,2.5565846-5.2441743,3.4418616-1.7209308.885277-3.2076403,1.3318853-4.4601286,1.3318853-1.044071,0-1.8777399-.3414073-2.5039841-1.018267s-1.044071-1.9551521-1.2524883-3.8348769c0-.5200506.0248116-1.0401012.0784046-1.5641216.0516081-.5220355.1300126-1.0420861.2352137-1.5661066l1.8777399-15.6491561c-1.3566969,2.2945744-3.0518236,4.8273399-5.0863727,7.5903568-2.0345491,2.7650018-4.2795003,5.3751795-6.7298914,7.8245781-2.452376,2.4533685-4.9563601,4.4879176-7.5119522,6.1036473-2.5585695,1.6177146-5.0863727,2.4255795-7.5903568,2.4255795-1.1502646,0-2.2965593-.1568091-3.4438465-.4684425-1.1492721-.3136183-2.1903658-1.07186-3.1302282-2.2707553-.93887-1.1969103-1.7209308-2.9734191-2.3471749-5.3196015-.6262441-2.3481674-.93887-5.5558077-.93887-9.6249059,0-6.7824919,1.1730912-13.2771696,3.5212586-19.486018,2.3471749-6.2068634,5.4238101-11.659455,9.2338755-16.3547973,3.807088-4.6953423,8.0597918-8.4250182,12.7551341-11.19002,4.6953423-2.7640094,9.3906846-4.1475028,14.086027-4.1475028,1.8777399,0,3.3644495.1836056,4.4601286.5478396,1.0956791.3662188,2.1119612.7582417,3.0528161,1.1730912.93887.4188194,1.8777399.8098498,2.8166099,1.1740837.93887.3672113,2.1377652.5478396,3.5986707.5478396l-6.2604564,44.2916375c-.1052011.8356538-.2104022,1.7745238-.3116334,2.8166099-.1052011,1.044071-.1568091,2.0345491-.1568091,2.9734191,0,.8376387.0774121,1.5919106.2342213,2.2707553s.4942466,1.0162821,1.018267,1.0162821c1.0401012,0,3.3366605-2.0861572,6.8857081-6.2604564l2.1913582,3.2870374ZM340.2072029,174.7568181c-1.044071-1.0410937-2.1675391-1.8241469-3.3644495-2.3471749-1.2008802-.5210431-2.6875897-.7830533-4.4601286-.7830533-3.4438465,0-6.5224667,1.513506-9.2338755,4.5385332-2.7143862,3.0280045-5.0089606,6.7298914-6.8867006,11.1126079s-3.3138339,9.0532472-4.3043119,14.0076224c-.992463,4.9563601-1.4867095,9.3112876-1.4867095,13.0687524,0,2.5029916.0784046,4.4601286.2352137,5.8674411.1568091,1.4092974.415842,2.4255795.7820608,3.0528161.3652264.6252517.8346614,1.0162821,1.4092974,1.1730912.5716587.1568091,1.2246993.2342213,1.9561445.2342213,1.1462947,0,2.7114088-.911081,4.6953423-2.7372129,1.9809561-1.8241469,4.0690982-4.0949022,6.259464-6.808296,2.1913582-2.7133938,4.3043119-5.7126169,6.338861-8.9996542s3.6780678-6.3894766,4.930556-9.3112876l3.1292358-22.0684066Z"/>
    <path class="cls-1" d="M398.4270658,212.0059384c0,3.1302282-.7820608,6.0242502-2.3461825,8.6860359-1.5661066,2.6598008-3.5232436,4.984149-5.869426,6.9651051-2.3481674,1.982941-4.9067369,3.5470627-7.6697538,4.6943499-2.7650018,1.1472872-5.3989986,1.7209308-7.9039751,1.7209308-2.5029916,0-4.6705307-.3910304-6.4946777-1.1730912-1.8261319-.7820608-3.3128414-1.7209308-4.4601286-2.8166099-1.1492721-1.0956791-1.982941-2.2707553-2.5029916-3.5212586-.5240204-1.2524883-.7840457-2.2945744-.7840457-3.1302282,0-2.5049765.7046487-4.3291235,2.1139461-5.4783956,1.4073125-1.1472872,2.4771876-1.7209308,3.2076403-1.7209308,1.4609055,0,2.4513835.5736436,2.9734191,1.7209308.5220355,1.1492721,1.0956791,2.4017604,1.7229157,3.7554799.6252517,1.3576893,1.5879408,2.6101776,2.894022,3.7574648,1.3040963,1.1492721,3.4160575,1.7209308,6.3398535,1.7209308,2.7114088,0,4.9285711-.7820608,6.6514868-2.3481674,1.7209308-1.5641216,2.5823887-4.0690982,2.5823887-7.5109598,0-2.1913582-.4982164-4.0949022-1.4886945-5.7126169-.992463-1.6177146-2.2429663-3.0766352-3.7554799-4.3827165-1.5125136-1.3040963-3.1560323-2.5823887-4.930556-3.8348769s-3.4180425-2.6339967-4.9285711-4.1465103c-1.5144985-1.5125136-2.7669868-3.2096253-3.7574648-5.0873652-.992463-1.8777399-1.4867095-4.1723143-1.4867095-6.8857081,0-3.1302282.6510557-5.9984462,1.957137-8.6076314,1.3040963-2.6072002,3.0250271-4.9037595,5.1647773-6.8867006,2.1377652-1.9809561,4.5891488-3.5212586,7.3561355-4.6169377,2.7630169-1.0956791,5.6590239-1.6435187,8.6860359-1.6435187,2.0861572,0,3.779299.3404148,5.0853803,1.0172745,1.3040963.6798371,2.3223634,1.513506,3.0528161,2.5039841.7284678.9934554,1.2246993,2.01073,1.4867095,3.0518236.2600253,1.044071.3910304,1.8787324.3910304,2.5039841,0,1.3576893-.4188194,2.7153787-1.2524883,4.0700906-.8356538,1.3566969-1.8261319,2.0345491-2.9734191,2.0345491-1.5641216,0-2.7133938-.4426385-3.4418616-1.3308928-.7324377-.885277-1.3854783-1.8241469-1.957137-2.8166099-.5756285-.990478-1.3060813-1.929348-2.1913582-2.8176024-.8872619-.885277-2.3223634-1.3299004-4.3033194-1.3299004-.7324377,0-1.5661066.1052011-2.5049765.3126258-.93887.2104022-1.8003278.6262441-2.5823887,1.2524883-.7820608.6252517-1.4351015,1.4867095-1.9551521,2.5823887-.5240204,1.0956791-.7840457,2.4791725-.7840457,4.1475028,0,3.0270121,1.0698751,5.6610088,3.2096253,7.9029826,2.1357803,2.2449512,4.5117367,4.4601286,7.1199294,6.6514868s4.9821641,4.5931186,7.1219143,7.1993264c2.1377652,2.6101776,3.2076403,5.790029,3.2076403,9.5474938Z"/>
    <path class="cls-1" d="M434.1100795,219.0484556c-1.1492721,1.6693227-2.5307806,3.3922384-4.1484952,5.1647773-1.6177146,1.7745238-3.3128414,3.3644495-5.0853803,4.7737469-1.7765087,1.4073125-3.5490476,2.5565846-5.3215865,3.4418616-1.7745238.885277-3.2870374,1.3318853-4.5375407,1.3318853-1.6713076,0-2.7153787-.5756285-3.1302282-1.7229157-.4188194-1.1472872-.6272366-2.4493986-.6272366-3.912289,0-.5200506.0238191-.93887.079397-1.2524883.0496231-.3116334.1290202-.6768597.2342213-1.0956791l8.763448-46.168385c.1032161-.2084172.1568091-.5210431.1568091-.93887,0-.8346614-.3136183-1.2524883-.93887-1.2524883-1.1492721,0-3.5986707,2.1397502-7.3561355,6.4162731l-1.8777399-3.442854c1.1472872-1.6673378,2.5565846-3.3644495,4.2259073-5.0863727,1.6673378-1.7219233,3.3902535-3.2860449,5.1647773-4.6953423,1.7725389-1.408305,3.5450777-2.5823887,5.3215865-3.5212586,1.7725389-.93887,3.3366605-1.408305,4.6943499-1.408305,1.1472872,0,2.0087451.4178269,2.5823887,1.2514958.5716587.8366463.8614579,2.3481674.8614579,4.5395256v1.0946867c0,.3136183-.053593.7314452-.1568091,1.2524883l-8.2950055,39.1268602c-.2104022,1.1492721-.4188194,2.2687704-.6252517,3.3644495-.2104022,1.0956791-.3136183,2.1139461-.3136183,3.0528161,0,1.7745238.4148495,2.6598008,1.2524883,2.6598008,1.1472872,0,3.5986707-2.0861572,7.3561355-6.2604564l1.7209308,3.2870374Z"/>
    <path class="cls-1" d="M458.3658745,235.4816575l-4.851159-55.5600621c0-1.7725389-.4704274-2.6607932-1.4092974-2.6607932-.5220355,0-1.3557044.5240204-2.5029916,1.5651141-1.1492721,1.044071-2.3481674,2.6091852-3.6006557,4.6953423l-2.3461825-3.1302282c.6252517-1.6673378,1.5105286-3.3644495,2.6598008-5.0863727,1.1472872-1.7219233,2.4255795-3.2860449,3.8348769-4.6953423,1.4073125-1.408305,2.868218-2.5823887,4.3827165-3.5212586,1.5105286-.93887,2.894022-1.408305,4.1465103-1.408305.3136183,0,.7562568.1568091,1.3299004.469435.5716587.3126258,1.1750762.7820608,1.8003278,1.408305s1.1988953,1.4628904,1.7209308,2.5039841c.5220355,1.044071.8336689,2.2965593.93887,3.7564723l2.8185948,45.0736983c2.0841722-3.1302282,4.3033194-6.5184968,6.6514868-10.1727455,2.3461825-3.6502788,4.4839477-7.3025425,6.4152807-10.9548063,1.929348-3.6522637,3.5212586-7.1219143,4.7737469-10.4079592,1.2524883-3.2870374,1.8777399-6.1284589,1.8777399-8.5302192,0-.93887-.1052011-1.6941343-.3116334-2.2687704-.2104022-.5726511-.4466083-1.0688826-.7046487-1.4867095-.2620102-.415842-.4962315-.8346614-.7046487-1.2524883-.2104022-.415842-.3136183-.93887-.3136183-1.5651141,0-2.0861572.6272366-3.6780678,1.8797249-4.7737469,1.2505033-1.0956791,2.6062078-1.6425262,4.0690982-1.6425262,2.1893733,0,3.7276909.7572492,4.6169377,2.2687704.885277,1.513506,1.3299004,3.470643,1.3299004,5.869426,0,1.7755163-.3136183,3.6780678-.93887,5.7126169-.6272366,2.0345491-1.8281168,4.6705307-3.6006557,7.9029826-1.7745238,3.2364218-4.2001033,7.3551431-7.2767385,12.3650962-3.0786201,5.0079682-7.0703062,11.3220176-11.9730733,18.9361935l-9.8591272,15.1807136-4.8531439,1.4092974Z"/>
    <path class="cls-1" d="M557.5923224,219.0484556c-1.044071,1.6693227-2.3759564,3.3922384-3.9916861,5.1647773-1.6177146,1.7745238-3.3128414,3.3644495-5.0853803,4.7737469-1.7765087,1.4073125-3.5212586,2.5565846-5.2441743,3.4418616-1.7209308.885277-3.2076403,1.3318853-4.4601286,1.3318853-1.044071,0-1.8777399-.3414073-2.5049765-1.018267-.6252517-.6768597-1.044071-1.9551521-1.2505033-3.8348769,0-.5200506.0238191-1.0401012.0774121-1.5641216.0516081-.5220355.1290202-1.0420861.2342213-1.5661066l1.8797249-15.6491561c-1.3576893,2.2945744-3.0528161,4.8273399-5.0873652,7.5903568-2.0345491,2.7650018-4.2795003,5.3751795-6.7288989,7.8245781-2.4533685,2.4533685-4.958345,4.4879176-7.5129447,6.1036473-2.5585695,1.6177146-5.0873652,2.4255795-7.5903568,2.4255795-1.1492721,0-2.2965593-.1568091-3.4438465-.4684425-1.1492721-.3136183-2.1913582-1.07186-3.1302282-2.2707553-.93887-1.1969103-1.7209308-2.9734191-2.3481674-5.3196015-.6252517-2.3481674-.93887-5.5558077-.93887-9.6249059,0-6.7824919,1.1750762-13.2771696,3.5212586-19.486018,2.3481674-6.2068634,5.4248026-11.659455,9.2338755-16.3547973s8.0607843-8.4250182,12.757119-11.19002c4.6943499-2.7640094,9.3886997-4.1475028,14.0850345-4.1475028,1.8777399,0,3.3644495.1836056,4.4601286.5478396,1.0956791.3662188,2.1119612.7582417,3.0528161,1.1730912.93887.4188194,1.8777399.8098498,2.8166099,1.1740837.93887.3672113,2.1377652.5478396,3.5986707.5478396l-6.2604564,44.2916375c-.1052011.8356538-.2104022,1.7745238-.3116334,2.8166099-.1052011,1.044071-.1568091,2.0345491-.1568091,2.9734191,0,.8376387.0774121,1.5919106.2342213,2.2707553s.4942466,1.0162821,1.018267,1.0162821c1.0401012,0,3.3366605-2.0861572,6.8857081-6.2604564l2.1913582,3.2870374ZM542.7232422,174.7568181c-1.044071-1.0410937-2.1655542-1.8241469-3.3644495-2.3471749-1.2008802-.5210431-2.6875897-.7830533-4.4601286-.7830533-3.4438465,0-6.5224667,1.513506-9.2338755,4.5385332-2.7153787,3.0280045-5.0079682,6.7298914-6.8857081,11.1126079-1.8797249,4.3827165-3.3148263,9.0532472-4.3053044,14.0076224-.992463,4.9563601-1.4867095,9.3112876-1.4867095,13.0687524,0,2.5029916.079397,4.4601286.2342213,5.8674411.1568091,1.4092974.4168344,2.4255795.7840457,3.0528161.3632414.6252517.8336689,1.0162821,1.4073125,1.1730912s1.2266842.2342213,1.957137.2342213c1.1472872,0,2.7114088-.911081,4.6943499-2.7372129,1.9809561-1.8241469,4.0690982-4.0949022,6.2604564-6.808296,2.1913582-2.7133938,4.3053044-5.7126169,6.3398535-8.9996542,2.0345491-3.2870374,3.6760828-6.3894766,4.9285711-9.3112876l3.1302282-22.0684066ZM527.6993377,151.281099c-5.1131692,0-7.6697538-3.0250271-7.6697538-9.0770663,0-5.8426295,2.7630169-8.7644405,8.2950055-8.7644405,5.0079682,0,7.5129447,2.921811,7.5129447,8.7644405,0,6.0520392-2.7153787,9.0770663-8.1381964,9.0770663ZM561.5859934,151.281099c-5.0635461,0-7.5943267-3.0250271-7.5943267-9.0770663,0-5.8426295,2.7372129-8.7644405,8.2156085-8.7644405,5.0615612,0,7.5923417,2.921811,7.5923417,8.7644405,0,6.0520392-2.7391978,9.0770663-8.2136236,9.0770663Z"/>
    <path class="cls-1" d="M569.1723804,234.8564058l9.0770663-51.0225214c.1032161-.6252517.1826132-1.2246993.2362062-1.7993354.0496231-.5726511.0774121-1.1740837.0774121-1.7993354,0-1.8787324-.4188194-2.8176024-1.2524883-2.8176024-.5220355,0-1.5125136.5478396-2.9734191,1.6435187-1.4628904,1.0956791-3.1838212,2.6875897-5.1647773,4.7727544l-1.7209308-3.442854c1.1472872-1.6673378,2.4771876-3.3644495,3.9897011-5.0863727s3.0766352-3.2860449,4.6963348-4.6953423c1.6157297-1.408305,3.2334444-2.5823887,4.851159-3.5212586s3.1540473-1.408305,4.6169377-1.408305c.93887,0,1.7209308.2888067,2.3481674.8604654.6252517.5746361.93887,1.6971117.93887,3.3654419,0,1.2514958-.1052011,3.442854-.3136183,6.5730823-.2104022,3.1302282-.93887,7.0425172-2.1913582,11.7378596,1.3557044-2.8176024,2.842414-5.6074158,4.4621135-8.3734101,1.6157297-2.7630169,3.3366605-5.2431819,5.1647773-7.4335477,1.8241469-2.1913582,3.6502788-3.9906936,5.4764107-5.399991,1.8241469-1.408305,3.6244748-2.1129537,5.3989986-2.1129537s3.2334444.5746361,4.3827165,1.7219233c1.1472872,1.1492721,1.7229157,2.8711954,1.7229157,5.1647773,0,2.7143862-.5240204,4.9057445-1.5661066,6.5730823-1.044071,1.6703152-2.5049765,2.5039841-4.3827165,2.5039841-1.044071,0-1.7983429-.1558167-2.2687704-.469435-.4704274-.3126258-.8872619-.6768597-1.2524883-1.0956791-.3672113-.415842-.7820608-.7820608-1.2524883-1.0956791-.4684425-.3126258-1.2266842-.469435-2.2687704-.469435-1.5641216,0-3.4974395,1.8003278-5.790029,5.399991-2.2965593,3.5996632-5.3215865,9.1554709-9.0770663,16.6684156l-5.4783956,31.3002972-10.4863638,3.7574648Z"/>
    <path class="cls-1" d="M636.939737,219.0484556c-1.1492721,1.6693227-2.5585695,3.3922384-4.2259073,5.1647773-1.6693227,1.7745238-3.4180425,3.3644495-5.2421894,4.7737469-1.8261319,1.4073125-3.6264597,2.5565846-5.3989986,3.4418616-1.7765087.885277-3.2870374,1.3318853-4.5395256,1.3318853-1.1492721,0-2.0623381-.4188194-2.7391978-1.2524883-.6788447-.8336689-1.0698751-2.3997755-1.1730912-4.6963348,0-.5200506.1032161-1.3021114.3136183-2.3461825l14.2418436-82.0101928c.1012312-.5210431.1806283-1.1194982.2342213-1.7993354.0516081-.6778522.0774121-1.2256918.0774121-1.6435187-.3116334-4.2775154-2.5029916-6.4172656-6.5720898-6.4172656l.4684425-4.2249149,19.406621-4.8521515-14.8670953,88.4264659c-.2104022,1.044071-.3910304,2.1119612-.5478396,3.2076403s-.2342213,2.1139461-.2342213,3.0528161c0,1.8777399.4148495,2.8166099,1.2505033,2.8166099,1.4609055,0,3.9638971-2.0861572,7.5129447-6.2604564l2.0345491,3.2870374Z"/>
    <path class="cls-1" d="M702.8293537,219.0484556c-1.1492721,1.6693227-2.5049765,3.3922384-4.0690982,5.1647773-1.5661066,1.7745238-3.2096253,3.3644495-4.930556,4.7737469-1.7209308,1.4073125-3.4438465,2.5565846-5.1647773,3.4418616s-3.2076403,1.3318853-4.4601286,1.3318853c-1.1492721,0-2.0345491-.3672113-2.6617857-1.0956791-.6252517-.7284678-.992463-2.0861572-1.0936942-4.0690982,0-.5220355.0238191-.990478.0774121-1.4092974.0516081-.4148495.0774121-.885277.0774121-1.4092974l2.0345491-15.0239045c-1.3557044,2.0881421-3.1838212,4.4601286-5.4764107,7.1219143-2.2965593,2.6598008-4.7737469,5.1905813-7.4335477,7.5903568-2.6617857,2.4017604-5.3751795,4.4363095-8.1401813,6.1036473s-5.3989986,2.5029916-7.9019902,2.5029916c-1.1492721,0-2.2965593-.1568091-3.4438465-.4684425-1.1492721-.3136183-2.1913582-1.0956791-3.1302282-2.3481674s-1.7209308-3.0766352-2.3481674-5.4783956c-.6252517-2.3977905-.93887-5.6848279-.93887-9.8591272,0-6.780507,1.0698751-13.2255616,3.2096253-19.3292088,2.1357803-6.1036473,4.9543752-11.4758493,8.4498297-16.1195836,3.4954546-4.6417493,7.4871407-8.3466136,11.9730733-11.1116154,4.4859326-2.7640094,9.0770663-4.1475028,13.7734011-4.1475028,1.3537195,0,2.5823887.2342213,3.6780678.7036562s2.2151774,1.07186,3.3644495,1.8003278l3.912289-29.4235497c0-1.5651141-.7046487-2.7382053-2.1119612-3.5212586-1.4092974-.7820608-3.7316608-1.1740837-6.9651051-1.1740837l.6252517-4.851159,21.9115975-4.2259073-12.3641037,88.4264659c-.2104022,1.5641216-.4446234,2.921811-.7046487,4.0690982-.2620102,1.1492721-.3910304,2.0881421-.3910304,2.8166099,0,1.5661066.3652264,2.3481674,1.0956791,2.3481674,1.0420861,0,3.6006557-2.1377652,7.6697538-6.4172656l1.8777399,3.2870374ZM686.8645943,180.0784046c-.7304527-2.7124013-2.0881421-4.7985585-4.0690982-6.2604564-1.982941-1.459913-4.4363095-2.1913582-7.3561355-2.1913582-3.4418616,0-6.3914615,1.513506-8.8408602,4.5385332-2.4533685,3.0280045-4.4621135,6.7298914-6.0262352,11.1126079-1.5661066,4.3827165-2.7153787,9.0532472-3.4438465,14.0076224-.7304527,4.9563601-1.0956791,9.3112876-1.0956791,13.0687524,0,2.3997755.1032161,4.2795003.3136183,5.6332198.2084172,1.3576893.4942466,2.4017604.8614579,3.1302282.3632414.7304527.8336689,1.1730912,1.4073125,1.3299004s1.2763074.2342213,2.1139461.2342213c1.1472872,0,2.8166099-.911081,5.0079682-2.7372129,2.1913582-1.8241469,4.4839477-4.0949022,6.8857081-6.808296,2.3997755-2.7133938,4.6685458-5.6868128,6.808296-8.9222421,2.1377652-3.2314594,3.7812839-6.2048785,4.930556-8.9202572l2.5029916-17.2152627Z"/>
  </g>
  <polygon class="cls-1" points="421.5075264 126.0768905 429.3574345 135.1966016 440.4565501 130.5490411 434.2089445 140.832893 442.0588526 149.952604 430.3477119 147.188663 424.1001062 157.4725149 423.1098289 145.4804535 411.3986882 142.7165125 422.4978038 138.068952 421.5075264 126.0768905"/>
</svg>