<?xml version="1.0" encoding="UTF-8"?>
<svg id="comparisons" xmlns="http://www.w3.org/2000/svg" viewBox="0 0 180 180">
  <defs>
    <style>
      .cls-1, .cls-2 {
        fill: none;
        stroke: #2f67b2;
        stroke-miterlimit: 10;
      }

      .cls-3 {
        fill: #1d1d1f;
      }

      .cls-2 {
        stroke-dasharray: 1.9926937 1.9926937;
      }

      .cls-4 {
        fill: #ef3d34;
      }
    </style>
  </defs>
  <path class="cls-3" d="M109.5127011,11.1376953v40.050293h.2998047c2.1005859-4.2988281,5.4003906-7.425293,9.9003906-9.375,4.5-1.9501953,9.4501953-2.925293,14.8496094-2.925293,6,0,11.2246094,1.1015625,15.6757812,3.300293,4.4482422,2.2006836,8.1484375,5.1748047,11.0996094,8.9248047,2.9482422,3.75,5.1748047,8.0766602,6.6748047,12.9750977,1.5,4.9008789,2.25,10.1015625,2.25,15.6000977,0,5.5009766-.7265625,10.7011719-2.1748047,15.6000977-1.4511719,4.9013672-3.6513672,9.1757812-6.5996094,12.8251953-2.9511719,3.6513672-6.6523438,6.5253906-11.1005859,8.625-4.4501953,2.0996094-9.6259766,3.1503906-15.5244141,3.1503906-1.9013672,0-4.0273438-.2021484-6.375-.6005859-2.3515625-.4003906-4.6757812-1.0498047-6.9755859-1.9501953-2.3017578-.8994141-4.4765625-2.1230469-6.5244141-3.6748047-2.0507812-1.5488281-3.7763672-3.4736328-5.1757812-5.7744141h-.2998047v10.3496094h-12.75V11.1376953h12.75ZM155.3378964,68.2128906c-.9511719-3.4501953-2.4003906-6.5249023-4.3496094-9.2250977-1.9501953-2.7001953-4.4511719-4.8491211-7.5-6.4501953-3.0517578-1.5981445-6.6259766-2.3999023-10.7255859-2.3999023-4.3007812,0-7.9501953.8510742-10.9501953,2.550293-3,1.7011719-5.4511719,3.9257812-7.3496094,6.6748047-1.9003906,2.7514648-3.2763672,5.8759766-4.125,9.375-.8505859,3.5014648-1.2753906,7.0498047-1.2753906,10.6499023,0,3.8017578.4501953,7.4770508,1.3505859,11.0249023.8994141,3.5512695,2.3251953,6.675293,4.2744141,9.3754883,1.9501953,2.7001953,4.4746094,4.875,7.5751953,6.5253906,3.0986328,1.6494141,6.8486328,2.4746094,11.25,2.4746094,4.3994141,0,8.0742188-.8486328,11.0253906-2.5498047,2.9482422-1.6992188,5.3251953-3.9492188,7.125-6.75,1.7998047-2.7988281,3.0986328-6,3.8994141-9.6000977.7998047-3.6005859,1.2001953-7.2988281,1.2001953-11.1005859,0-3.5996094-.4755859-7.125-1.4248047-10.574707Z"/>
  <path class="cls-3" d="M24.8398495,108.0371094h-.2998047v10.1992188h-12.1494141V10.9902344h12.1494141v40.7983398h.2998047c5.8496094-7.949707,13.6494141-12.8994141,24.8984375-12.8994141,19.6494141,0,32.9990234,14.9995117,32.9990234,40.7983398,0,24.8994141-12.4492188,40.7988281-33.4482422,40.7988281-10.5,0-18.1494141-3.75-24.4492188-12.4492188ZM70.2880917,79.8374023c0-17.3994141-7.0498047-30.5986328-21.7490234-30.5986328-16.9492188,0-24.7490234,13.7993164-24.7490234,30.5986328,0,17.3999023,8.0996094,30.449707,24.5986328,30.449707,14.8496094,0,21.8994141-12.9003906,21.8994141-30.449707Z"/>
  <g>
    <path class="cls-1" d="M48.5389767,29.9397736c.3356934,0,.6692505.0040436,1.0006409.0120697"/>
    <path class="cls-2" d="M51.5321408,30.0497437c48.4285889,3.6068573,48.0951233,94.750824-1.0003967,97.1521912"/>
    <path class="cls-1" d="M49.5396176,127.2381592c-.3313904.0080566-.6649475.012085-1.0006409.012085"/>
  </g>
  <g>
    <path class="cls-1" d="M136.7929745,29.9397736c.3356934,0,.6692505.0040436,1.0006714.0120697"/>
    <path class="cls-2" d="M139.7861386,30.0497437c48.4285889,3.6068573,48.0951538,94.750824-1.0003662,97.1521912"/>
    <path class="cls-1" d="M137.7936459,127.2381592c-.3314209.0080566-.664978.012085-1.0006714.012085"/>
  </g>
  <path class="cls-4" d="M156.6005917,75.0720215l13.661592.0000042s.3358253,13.1962121-1.5747392,18.1412025c-14.0811836-.0128406-14.0403441-.0000018-14.0403441-.0000018-.1242065-.7064209,2.5907005-5.200968,1.9534912-18.1412048Z"/>
</svg>