<?xml version="1.0" encoding="UTF-8"?>
<svg id="comparisons" xmlns="http://www.w3.org/2000/svg" viewBox="0 0 180 180">
  <defs>
    <style>
      .cls-1 {
        fill: #1d1d1f;
      }

      .cls-2 {
        fill: none;
        stroke: #2f67b2;
        stroke-dasharray: 2;
        stroke-miterlimit: 10;
      }

      .cls-3 {
        fill: #ef3d34;
      }
    </style>
  </defs>
  <path class="cls-1" d="M170.7226562,117.9375c-2.2001953,1.2978516-5.25,1.9501953-9.1494141,1.9501953-3.3007812,0-5.9257812-.9257812-7.875-2.7753906-1.9501953-1.8496094-2.9257812-4.875-2.9257812-9.0751953-3.5009766,4.2001953-7.5742188,7.2255859-12.2246094,9.0751953s-9.6748047,2.7753906-15.0751953,2.7753906c-3.5009766,0-6.8251953-.4013672-9.9746094-1.2001953-3.1503906-.7998047-5.8759766-2.0488281-8.1748047-3.75-2.3017578-1.6992188-4.125-3.9238281-5.4755859-6.6748047-1.3496094-2.75-2.0244141-6.0751953-2.0244141-9.9755859,0-4.3994141.75-7.9995117,2.25-10.800293,1.5-2.7988281,3.4726562-5.0742188,5.9248047-6.8251953,2.4492188-1.7480469,5.25-3.0751953,8.3994141-3.9746094,3.1503906-.9003906,6.375-1.6503906,9.6757812-2.25,3.4990234-.6982422,6.8242188-1.2236328,9.9746094-1.5751953,3.1503906-.3496094,5.9248047-.8486328,8.3251953-1.5,2.3994141-.6494141,4.2978516-1.5986328,5.7001953-2.8496094,1.3984375-1.25,2.0996094-3.0751953,2.0996094-5.4755859,0-2.7983398-.5253906-5.0483398-1.5751953-6.75-1.0498047-1.6992188-2.3994141-3-4.0498047-3.8999023s-3.5019531-1.5-5.5498047-1.7998047c-2.0507812-.300293-4.0761719-.4501953-6.0751953-.4501953-5.4003906,0-9.9003906,1.0268555-13.5,3.0751953-3.5996094,2.0507812-5.5498047,5.9248047-5.8496094,11.625h-12.75c.1992188-4.800293,1.1992188-8.8500977,3-12.1499023,1.7998047-3.300293,4.1992188-5.9746094,7.1992188-8.0253906,3-2.0483398,6.4248047-3.5249023,10.2753906-4.4248047,3.8486328-.8999023,7.9736328-1.3500977,12.375-1.3500977,3.4990234,0,6.9746094.2509766,10.4248047.75,3.4501953.4995117,6.5742188,1.5209961,9.375,3.0678711,2.7988281,1.546875,5.0488281,3.7172852,6.75,6.5112305,1.6992188,2.793457,2.5498047,6.4360352,2.5498047,10.9243164v39.815918c0,2.9951172.1738281,5.1894531.5253906,6.5859375.3496094,1.3964844,1.5234375,2.0957031,3.5253906,2.0957031,1.0986328,0,2.3994141-.1992188,3.8994141-.6005859v9.9003906ZM150.0224609,78.1870117c-1.6005859,1.1953125-3.7001953,2.0644531-6.2998047,2.6132812-2.6015625.5478516-5.3251953.9960938-8.1748047,1.3427734-2.8496094.3496094-5.7255859.7480469-8.625,1.1953125-2.9013672.4472656-5.5009766,1.1699219-7.7998047,2.1630859-2.3017578.9941406-4.1767578,2.4121094-5.625,4.2539062-1.4511719,1.8432617-2.1748047,4.3549805-2.1748047,7.5385742,0,2.0898438.4238281,3.8554688,1.2744141,5.2988281.8486328,1.4433594,1.9501953,2.6132812,3.2998047,3.5087891,1.3505859.8955078,2.9257812,1.5419922,4.7255859,1.9404297s3.6982422.5957031,5.7001953.5957031c4.1992188,0,7.7998047-.5722656,10.7998047-1.7158203s5.4492188-2.5878906,7.3496094-4.3291016c1.8984375-1.7412109,3.2998047-3.6328125,4.2001953-5.671875s1.3496094-3.9560547,1.3496094-5.7470703v-12.9868164Z"/>
  <path class="cls-1" d="M62.8266602,107.4375h-.1499023c-4.6499023,6-12.5996094,12.2998047-25.7993164,12.2998047-14.6992188,0-26.2485352-6.8994141-26.2485352-21.5996094,0-18.2993164,14.3994141-22.0493164,33.7485352-25.0493164,10.9492188-1.6494141,18.5991211-2.6992188,18.5991211-11.0991211,0-8.699707-6.2998047-13.6494141-17.3994141-13.6494141-12.5996094,0-18.8989258,5.3994141-19.3491211,17.0991211h-11.699707c.4501953-14.9995117,10.3496094-26.2490234,30.8989258-26.2490234,16.4995117,0,28.6489258,6.1499023,28.6489258,24.5991211v36.8994141c0,6.2988281,1.5,9.7490234,8.25,8.2490234h.4492188v8.8496094c-1.5.6005859-3.4492188,1.2001953-6.5996094,1.2001953-7.9492188,0-12.1494141-3.5996094-13.3491211-11.5498047ZM63.1264648,89.5883789v-13.2001953c-4.0498047,2.5498047-11.0996094,4.5-17.6992188,5.7001953-12.1494141,2.25-21.8989258,4.3496094-21.8989258,15.7495117,0,10.3496094,8.0996094,12.5996094,16.0493164,12.5996094,16.1992188,0,23.5488281-11.8496094,23.5488281-20.8491211Z"/>
  <line class="cls-2" x1="9.1178466" y1="65.6709839" x2="169.593932" y2="65.6709839"/>
  <path class="cls-3" d="M146.1894456,53.5369227l12.0755359-6.9869622s2.0341802,1.6919995,3.4420928,6.0993781c1.4696773,4.6007289,1.0384305,9.4269259,1.0384305,9.4269259h-12.6026951c-.1713589-3.7279338-1.5959644-6.5409863-3.953364-8.5393417Z"/>
  <rect class="cls-3" x="100.8480309" y="64.7119957" width="12.7671784" height=".652945"/>
</svg>