<?xml version="1.0" encoding="UTF-8"?>
<svg id="comparisons" xmlns="http://www.w3.org/2000/svg" viewBox="0 0 180 180">
  <defs>
    <style>
      .cls-1 {
        fill: #1d1d1f;
      }

      .cls-2, .cls-3 {
        fill: none;
        stroke: #2f67b2;
        stroke-dasharray: 2;
        stroke-miterlimit: 10;
      }

      .cls-4 {
        fill: #ef3d34;
      }

      .cls-3 {
        stroke-width: .75px;
      }
    </style>
  </defs>
  <path class="cls-1" d="M8.6268668,80.2929688c0-22.4990234,14.3994141-40.7983398,37.4990234-40.7983398,18.2988281,0,30.4482422,10.4995117,33.1484375,26.9985352h-12.2998047c-1.7998047-10.4995117-9.1494141-16.9492188-20.8486328-16.9492188-16.4990234,0-25.0488281,13.6494141-25.0488281,30.7490234s8.5498047,30.5986328,25.0488281,30.5986328c12.5996094,0,20.0986328-7.2001953,21.1494141-19.1992188h11.9990234c-1.6494141,18.5996094-13.7998047,29.3984375-33.1484375,29.3984375-23.0996094,0-37.4990234-18.2988281-37.4990234-40.7978516Z"/>
  <path class="cls-1" d="M148.5243278,54.9414062c-3.2021484-2.7001953-7.5-4.050293-12.9003906-4.050293-4.6005859,0-8.4511719.8510742-11.5498047,2.550293-3.1005859,1.7011719-5.5761719,3.9511719-7.4248047,6.75-1.8515625,2.8007812-3.1757812,6.0253906-3.9755859,9.6748047-.8007812,3.6513672-1.1992188,7.4248047-1.1992188,11.3251953,0,3.5996094.4238281,7.1015625,1.2744141,10.5.8486328,3.4003906,2.1748047,6.4267578,3.9755859,9.0751953,1.7998047,2.6503906,4.1484375,4.7763672,7.0498047,6.375,2.8994141,1.6005859,6.3486328,2.3994141,10.3496094,2.3994141,6.2998047,0,11.2246094-1.6494141,14.7753906-4.9501953,3.5478516-3.2998047,5.7236328-7.9492188,6.5244141-13.9492188h13.0507812c-1.4023438,9.5996094-4.9765625,17.0009766-10.7255859,22.1992188-5.7509766,5.2011719-13.5751953,7.8007812-23.4746094,7.8007812-5.9013672,0-11.1259766-.9521484-15.6748047-2.8505859-4.5517578-1.8984375-8.3515625-4.5986328-11.4003906-8.0996094-3.0517578-3.4990234-5.3505859-7.6738281-6.9003906-12.5253906-1.5507812-4.8486328-2.3242188-10.1738281-2.3242188-15.9746094,0-5.7988281.75-11.2246094,2.25-16.2753906,1.5-5.0483398,3.7734375-9.449707,6.8242188-13.199707,3.0498047-3.75,6.875-6.6987305,11.4755859-8.8500977,4.5986328-2.1494141,9.9492188-3.2250977,16.0498047-3.2250977,4.3994141,0,8.5244141.5249023,12.375,1.5751953,3.8486328,1.0498047,7.2490234,2.6762695,10.2001953,4.875,2.9482422,2.2006836,5.3740234,4.9755859,7.2744141,8.324707,1.8984375,3.3515625,3.0986328,7.3266602,3.6005859,11.925293h-13.2001953c-1.0009766-4.8984375-3.1005859-8.7001953-6.2998047-11.3999023Z"/>
  <line class="cls-2" x1="58.2575953" y1="66.7123699" x2="171.8952296" y2="66.7123699"/>
  <line class="cls-3" x1="58.1160163" y1="91.3209516" x2="171.7536506" y2="91.3209516"/>
  <polygon class="cls-4" points="155.2555383 91.745949 155.4237418 90.6416016 168.4746189 90.6409991 168.2990128 91.7453466 155.2555383 91.745949"/>
</svg>