<?xml version="1.0" encoding="UTF-8"?>
<svg xmlns="http://www.w3.org/2000/svg" viewBox="0 0 180 180">
  <defs>
    <style>
      .cls-1, .cls-2 {
        fill: none;
        stroke: #2f67b2;
        stroke-miterlimit: 10;
      }

      .cls-3 {
        fill: #1d1d1f;
      }

      .cls-2 {
        stroke-dasharray: 2;
      }

      .cls-4 {
        fill: #ef3d34;
      }
    </style>
  </defs>
  <g id="characters">
    <g>
      <path class="cls-3" d="M140.9817439,128.2912168c-1.5,3.7998047-2.9765625,6.9990234-4.4248047,9.6005859-1.4511719,2.5986328-3.0517578,4.7246094-4.7998047,6.375-1.7509766,1.6494141-3.7011719,2.8496094-5.8505859,3.5996094-2.1513672.75-4.6259766,1.125-7.4248047,1.125-1.5,0-3-.1005859-4.5-.2998047-1.5-.2011719-2.9501953-.5507812-4.3496094-1.0498047v-11.7001953c1.0986328.4990234,2.3740234.9238281,3.8251953,1.2753906,1.4482422.3486328,2.6738281.5244141,3.6748047.5244141,2.5986328,0,4.7744141-.6259766,6.5244141-1.875,1.7490234-1.2509766,3.0751953-3.0253906,3.9755859-5.3251953l5.25-13.0498047-30.75-77.0996094h14.3994141l22.6503906,63.4501953h.2998047l21.75-63.4501953h13.5l-33.75,87.8994141Z"/>
      <path class="cls-3" d="M10.9710018,142.2365293v-10.7998047h.6005859c1.6494141.9003906,4.2001953,1.6503906,8.25,1.6503906,5.0996094,0,8.5488281-1.9501953,11.5488281-9.4501953l3-7.6494141L4.0715877,40.6906308h13.1992188l18.2998047,48.2978516c2.3994141,6.4501953,5.25,15.1494141,5.25,15.1494141h.2998047s2.7001953-8.6992188,5.0996094-15.1494141l17.6992188-48.2978516h12.8994141l-33.1484375,83.8466797c-6.2998047,16.0488281-12.2998047,19.3496094-21.7490234,19.3496094-4.6503906,0-7.6494141-.3007812-10.9501953-1.6503906Z"/>
    </g>
    <path class="cls-4" d="M10.9710018,131.4367246h.6005859s1.0099098.6401273,3.3220391,1.2031846h-3.922625v-1.2031846Z"/>
    <path class="cls-4" d="M109.6321346,135.9416074v1.610784h5.4267737c-1.7165833-.3395996-3.5665137-.8256277-5.4267737-1.610784Z"/>
    <circle class="cls-1" cx="12.1248323" cy="132.3224847" r="5.1962195"/>
    <circle class="cls-1" cx="111.9064037" cy="135.9416074" r="5.1962195"/>
  </g>
  <g id="comparisons">
    <line class="cls-2" x1="3.7218641" y1="144.3518938" x2="150.8281465" y2="144.5428624"/>
  </g>
</svg>