<?xml version="1.0" encoding="UTF-8"?>
<svg id="characters" xmlns="http://www.w3.org/2000/svg" viewBox="0 0 180 180">
  <defs>
    <style>
      .cls-1 {
        fill: none;
        stroke: #2f67b2;
        stroke-miterlimit: 10;
      }

      .cls-2 {
        fill: #1d1d1f;
      }

      .cls-3 {
        fill: #ef3d34;
      }
    </style>
  </defs>
  <g>
    <path class="cls-2" d="M95.0262809,40.6880918h16.3496094l18.6005859,27.1494141,19.3496094-27.1494141h15.2998047l-26.7001953,35.7001953,30,41.8496094h-16.3496094l-21.5996094-32.0996094-21.6005859,32.0996094h-15.4501953l29.1005859-40.7998047-27-36.75Z"/>
    <path class="cls-2" d="M40.8739372,77.5884824L15.075109,40.6900449h14.0996094l18.4492188,28.1992188h.2998047l19.1992188-28.1992188h13.3496094l-25.4990234,35.5488281,30.2988281,41.9980469h-14.2490234l-22.9492188-33.2988281h-.2998047l-22.4990234,33.2988281h-13.6494141l29.2480469-40.6484375Z"/>
  </g>
  <circle class="cls-1" cx="47.9685724" cy="87.3069998" r="5.1962195"/>
  <circle class="cls-1" cx="129.9672061" cy="87.3069998" r="5.1962195"/>
  <polygon class="cls-3" points="18.4601545 45.5350154 32.3471342 45.5350154 37.8891623 54.0155016 24.3989781 54.0272621 18.4601545 45.5350154"/>
  <polygon class="cls-3" points="98.5718156 45.5150931 114.6862742 45.5150931 120.5046011 54.0155016 104.8205204 54.0073399 98.5718156 45.5150931"/>
  <polygon class="cls-3" points="44.5812728 89.6759077 47.7743278 84.9380918 48.0741325 84.9380918 51.3558719 89.6759077 44.5812728 89.6759077"/>
  <polygon class="cls-3" points="127.5418793 89.6759077 132.3925329 89.6759077 129.9764762 86.1382871 127.5418793 89.6759077"/>
</svg>