<?xml version="1.0" encoding="UTF-8"?>
<svg id="characters" xmlns="http://www.w3.org/2000/svg" viewBox="0 0 180 180">
  <defs>
    <style>
      .cls-1 {
        fill: #1d1d1f;
      }

      .cls-2 {
        fill: #ef3d34;
      }
    </style>
  </defs>
  <path class="cls-2" d="M72.9042207,78.7295983c0,18.4529466-11.9686834,33.4120155-26.7328027,33.4120155s-26.7328027-14.9590689-26.7328027-33.4120155,7.5891611-32.4542087,22.3070127-33.6332967c15.8830386-1.2724344,31.1585926,15.1803501,31.1585926,33.6332967Z"/>
  <path class="cls-2" d="M154.7041641,79.4004111c0,18.8202326-12.3507958,34.0770456-27.5862746,34.0770456s-27.5862746-15.256813-27.5862746-34.0770456,7.8314528-33.1001746,23.0191868-34.3027311c16.3901208-1.2977608,32.1533625,15.4824985,32.1533625,34.3027311Z"/>
  <g>
    <path class="cls-1" d="M150.6388842,118.2373047v-10.5h-.3007812c-2.0996094,4.3007812-5.3994141,7.4013672-9.8994141,9.2998047s-9.4501953,2.8505859-14.8505859,2.8505859c-6,0-11.2265625-1.1015625-15.6748047-3.3007812-4.4501953-2.1982422-8.1513672-5.1484375-11.0996094-8.8496094-2.9511719-3.6982422-5.1748047-7.9990234-6.6748047-12.9003906-1.5-4.8984375-2.25-10.0986328-2.25-15.5996094,0-5.4980469.7236328-10.6992188,2.1748047-15.5996094,1.4482422-4.8984375,3.6494141-9.1738281,6.5996094-12.8251953,2.9482422-3.6494141,6.6494141-6.5488281,11.1005859-8.7001953,4.4482422-2.1494141,9.6230469-3.2250977,15.5244141-3.2250977,1.9990234,0,4.1484375.2016602,6.4501953.6000977,2.2988281.4008789,4.5986328,1.0756836,6.9003906,2.0249023,2.2988281.9516602,4.4736328,2.2006836,6.5244141,3.75,2.0488281,1.5517578,3.7734375,3.4760742,5.1748047,5.7749023h.3007812V11.137207h12.75v107.1000977h-12.75ZM104.8136889,90.7119141c.9492188,3.4501953,2.3994141,6.5253906,4.3496094,9.2255859s4.4482422,4.8515625,7.5,6.4501953c3.0498047,1.6005859,6.6240234,2.3994141,10.7255859,2.3994141,4.2978516,0,7.9492188-.8486328,10.9492188-2.5498047,3-1.6992188,5.4492188-3.9238281,7.3505859-6.6748047,1.8984375-2.7490234,3.2744141-5.8740234,4.125-9.375.8486328-3.4990234,1.2744141-7.0498047,1.2744141-10.6503906,0-3.7988281-.4492188-7.4736328-1.3496094-11.0244141-.9003906-3.5488281-2.3251953-6.6757812-4.2753906-9.375-1.9492188-2.7001953-4.4765625-4.875-7.5742188-6.5253906-3.1015625-1.6503906-6.8515625-2.4746094-11.25-2.4746094-4.3007812,0-7.9501953.8505859-10.9501953,2.5498047-3,1.7011719-5.4003906,3.9511719-7.2001953,6.75-1.7998047,2.8007812-3.1005859,6-3.9003906,9.5996094-.8007812,3.6005859-1.1992188,7.3007812-1.1992188,11.1005859,0,3.5996094.4726562,7.125,1.4248047,10.5742188Z"/>
    <path class="cls-1" d="M10.4621264,79.6884766c0-25.7988281,14.8496094-40.7978516,34.0488281-40.7978516,10.9501953,0,19.3496094,5.3999023,24.2988281,12.7490234h.3007812V10.9916992h12.1494141v107.2456055h-12.1494141v-9.4492188h-.3007812c-5.8496094,7.4990234-13.0488281,11.6992188-23.9990234,11.6992188-21.1484375,0-34.3486328-15.8994141-34.3486328-40.7988281ZM69.8605639,79.8388672c0-17.9990234-8.7001953-30.5986328-24.7490234-30.5986328-14.7001953,0-22.1992188,13.1992188-22.1992188,30.5986328,0,17.5488281,7.4990234,30.4492188,22.3486328,30.4492188,17.2490234,0,24.5996094-12.9003906,24.5996094-30.4492188Z"/>
  </g>
</svg>