<?xml version="1.0" encoding="UTF-8"?>
<svg id="Layer_1" data-name="Layer 1" xmlns="http://www.w3.org/2000/svg" viewBox="0 0 415.63 243.98">
  <defs>
    <style>
      .cls-1 {
        fill: #fff;
      }
    </style>
  </defs>
  <g>
    <g>
      <path class="cls-1" d="M97.61,101.13c-4.7,6.21-9.1,12.97-13.19,20.31-4.09,7.33-7.01,13.12-8.74,17.35l-2.61,6.35c-.75,1.6-1.41,2.4-1.97,2.4-.28,0-.53-.17-.74-.49-.21-.33-.36-.66-.46-.99l-.14-.49c-.61-3.81-.92-7.8-.92-11.99,0-3.34.23-8.19.71-14.56.47-6.37.71-11.01.71-13.93,0-.47-.09-.71-.28-.71-.09,0-.22.07-.39.21-.17.14-.29.28-.39.42l-.14.21c-1.83,2.63-3.94,6.38-6.31,11.25-2.37,4.87-4.24,9.06-5.61,12.59-1.03,2.68-2.1,5.1-3.21,7.26-1.1,2.16-2.08,3.85-2.93,5.08s-1.62,2.25-2.33,3.07c-.71.82-1.25,1.38-1.62,1.66l-.56.42c-.56.42-.96.63-1.2.63-.28,0-.42-.24-.42-.71,0-4.42,6.79-17.77,20.38-40.05,1.13-1.83,2.15-3.53,3.07-5.08.92-1.55,1.54-2.63,1.87-3.24l.49-.99c1.97-5.5,3.48-8.25,4.51-8.25.71,0,1.06,1.18,1.06,3.53.33,11.33.49,20.85.49,28.56,0,3.34-.02,5.62-.07,6.84.09.75.31,1.13.63,1.13.38,0,.85-.54,1.41-1.62,5.03-9.59,8.2-15.8,9.52-18.62,6.35-13.49,12.22-20.24,17.63-20.24.66,0,.99.19.99.56,0,.28-.24.66-.71,1.13-1.22,1.41-4.07,5.08-8.53,11Z"/>
      <path class="cls-1" d="M97.63,101.14c-8.42,11.26-15.43,23.58-21.25,36.36-.92,2.15-1.79,4.34-2.68,6.5-.6,1.27-1.02,3.06-2.47,3.66-1.08.07-1.38-1.32-1.62-2.09-2.19-13.05.19-26.23.43-39.32,0-.28.06-1.46-.07-1.67-1.13.89-1.87,2.6-2.7,3.83-3.11,5.32-5.73,10.93-8.2,16.57-2.38,5.68-4.44,11.62-7.99,16.74-1.38,1.77-2.75,3.98-4.68,5.21-.52.41-1.63.94-1.78-.17-.05-1.82.62-3.54,1.19-5.18,1.67-4.34,3.81-8.48,5.99-12.58,5.6-10.7,12.77-21.61,18.56-32.02.61-1.55,3.85-11.56,5.91-7.55.19.55.25,1.07.3,1.6.13,4.12.17,8.17.25,12.26.05,4.32.3,14.18.32,18.36,0,0-.06,6.13-.06,6.13v-.07c.03.29.1.62.23.77.35-.18.69-.76.96-1.25,2.25-4.39,5.56-10.91,7.81-15.32,4.27-8.02,7.66-17.4,15.52-22.7,1.29-.76,2.8-1.25,4.33-1.27.32.03.7-.01,1.14.38.69.7-.15,1.74-.56,2.11,0,0-8.5,10.99-8.5,10.99,0,0-.38-.29-.38-.29h0ZM97.21,100.83s8.57-11.02,8.57-11.02c.19-.19.38-.4.49-.59.13-.21.07-.27.1-.21.02-.02-.24-.1-.47-.09-7.4.42-12.8,11.36-15.95,17.24-2.77,5.71-6.49,12.72-9.38,18.42-.68,1.14-1.65,3.77-2.75,4.58-.98.61-1.53-.53-1.56-1.32,0-.03.06-6.13.07-6.17,0-4.12-.23-14.1-.27-18.35-.08-4.07-.11-8.18-.22-12.21-.07-.63-.1-1.43-.53-1.84-.08-.06-.18-.04-.35.04-.67.48-1.18,1.45-1.64,2.31-.9,1.8-1.62,3.71-2.32,5.61-1.42,2.78-3.09,5.42-4.69,8.07-4.65,7.68-9.78,16.13-13.99,24-2.18,4.07-4.32,8.18-5.99,12.49-.53,1.43-1.03,2.91-1.16,4.38-.08.36.02.79.09.73,1.69-.62,2.92-2.24,4-3.64,4.41-5.42,6.68-12.1,9.37-18.46,2.83-6.35,5.76-12.7,9.5-18.58.36-.45,1.59-2.86,2.24-1.78.18.43.06,1.37.08,1.82-.27,13.08-2.69,26.24-.54,39.27,1.02,4.06,2.76.34,3.52-1.64.9-2.17,1.77-4.34,2.7-6.5,3.88-8.55,8.46-16.77,13.44-24.72,2.51-3.96,5.19-7.82,8.03-11.55l-.38-.29h0Z"/>
    </g>
    <g>
      <path class="cls-1" d="M97.68,132.16l2.19-3.74c0-.14-.05-.21-.14-.21s-.21.07-.35.21c-1.74,2.02-3.55,3.98-5.43,5.89-1.88,1.9-3.31,3.3-4.3,4.2l-1.55,1.34c-3.67,3.48-6.21,5.22-7.62,5.22-.66,0-.99-.42-.99-1.27,0-.94.39-2.37,1.16-4.3.78-1.93,1.56-3.64,2.36-5.15l1.13-2.19c3.95-7.38,6.86-12.32,8.74-14.81.94-1.22,2.09-2.25,3.46-3.07,1.36-.82,2.42-1.23,3.17-1.23.47,0,.71.17.71.49,0,.19-.09.45-.28.78-.09.19-1.06,1.75-2.89,4.69-1.83,2.94-3.31,5.47-4.44,7.58-3.1,5.69-4.65,8.96-4.65,9.8,0,.33.14.49.42.49.42,0,1.15-.42,2.19-1.27,3.06-2.63,6.42-6.18,10.08-10.65,2.02-2.16,4.14-4.98,6.35-8.46,1.5-2.3,3.5-3.46,5.99-3.46.42,0,.63.19.63.56l-.56,1.34c-.66,1.17-2.13,3.75-4.41,7.72-2.28,3.97-3.58,6.24-3.91,6.81-1.93,3.38-2.89,5.62-2.89,6.7,0,.42.14.63.42.63.47,0,1.97-1.17,4.51-3.53,1.97-1.97,4.58-4.82,7.83-8.53.14-.14.26-.21.35-.21s.14.09.14.28c0,.89-.35,1.76-1.06,2.61-3.48,3.86-6.56,7.08-9.24,9.66-1.83,1.74-3.89,3.48-6.17,5.22-2.28,1.74-3.94,2.61-4.97,2.61-.71,0-1.06-.49-1.06-1.48,0-.56.42-1.79,1.27-3.67.85-1.88,1.69-3.62,2.54-5.22l1.27-2.4Z"/>
      <path class="cls-1" d="M97.66,132.15l2.17-3.75c-.02-.28-.29-.11-.43.05-1.85,2.05-6.31,6.95-8.32,8.78-.7.72-2.19,2.1-2.96,2.73-1.59,1.37-6.4,6.41-8.44,4.94-1.92-3.01,6.62-16.76,8.4-20.26,2.72-4.53,5.2-10.05,10.7-11.7.76-.23,2-.12,1.57,1.01-.23.57-.71,1.25-1.02,1.77-3.25,5.31-7.22,11.92-9.9,17.52-.45,1.02-1.04,2.06-1.22,3.17,0,.14.04.19.06.2.43.08,1.12-.45,1.52-.73,2.6-2.08,4.9-4.55,7.14-7.01,3.54-4.04,7.07-8.05,9.88-12.65,1.3-2.07,3.64-3.54,6.13-3.48.19,0,.44,0,.68.18.28.23.37.57.3.84,0,0-.56,1.34-.56,1.34,0,.01-.01.02-.02.03,0,0-5.42,9.52-5.42,9.52-1.56,2.79-3.97,6.67-5.17,9.58-.24.67-.65,1.57-.49,2.23,3.42-2,6.58-6.14,9.35-9.03,0,0,1.84-2.02,1.84-2.02.39-.37.67-.85,1.19-1.19.12-.04.19-.12.5-.04.41.22.34.44.37.7.05,2.19-2.16,3.81-3.39,5.31-3.73,4.03-7.51,8.04-11.84,11.44-1.61,1.14-5.73,5.02-7.69,3.34-.82-1.12-.37-2.25-.09-3.1.92-2.53,2.33-5.08,3.47-7.52,0,0,1.28-2.43,1.28-2.43l.42.23h0ZM98.12,132.4c-.65,1.19-1.9,3.62-2.47,4.85-.67,1.61-5.19,9.17-.36,6.69,6.22-3.65,11.27-9.13,16.2-14.35,1.06-1.3,3.23-2.92,3.19-4.74.02-.19-.07-.03.17.08.19.04.15,0,.17,0-1.69,1.77-4.83,5.22-6.53,7.06-1.2,1.38-2.55,2.63-3.97,3.8-.56.45-1.09.9-1.74,1.24-1.29.62-1.5-.83-1.18-1.78,1.13-3.64,3.89-7.65,5.71-10.99,0,0,5.45-9.49,5.45-9.49-.07.16.56-1.33.55-1.3,0,0-.03.13-.03.13,0-.12-.03-.16-.05-.18-2.35-.29-4.63,1.17-5.89,3.12-2.82,4.59-6.42,8.66-9.98,12.68-2.54,2.69-5.01,5.58-8.12,7.63-.32.14-.65.39-1.2.21-.78-.54-.11-1.55.09-2.21,1.34-3.09,2.97-6.05,4.61-8.99,0,0,4.09-6.96,4.09-6.96.68-1.15,2.54-3.98,3.12-5.12.29-.74-.63-.54-1.07-.46-2.47.79-4.73,2.48-6.23,4.65-1.58,2.1-17.09,27.35-11.95,26.91,3.53-1,6-4.22,8.81-6.42.9-.87,3.41-3.29,4.34-4.2,0,0,5.49-5.9,5.49-5.9.16-.21.6-.38.56.05,0,0-2.2,3.73-2.2,3.73l.42.23h0Z"/>
    </g>
    <g>
      <path class="cls-1" d="M124.12,136.18c2.49-2.3,6.06-6.11,10.72-11.42.14-.14.26-.21.35-.21s.14.09.14.28c0,.89-.35,1.76-1.06,2.61-3.48,3.86-6.56,7.08-9.24,9.66-1.97,1.97-4.33,3.87-7.05,5.68-2.73,1.81-4.98,2.71-6.77,2.71-2.16,0-3.24-1.51-3.24-4.51,0-4.98,1.84-10.2,5.54-15.65,3.69-5.45,7.96-9.14,12.8-11.07,2.02-.85,3.85-1.27,5.5-1.27,1.83,0,2.75.73,2.75,2.19,0,2.73-1.93,5.85-5.78,9.38-3.86,3.53-8.18,6.21-12.97,8.04-.19.05-.35.21-.49.49-.71,1.93-1.06,3.64-1.06,5.15,0,1.69.63,2.54,1.9,2.54,2.02,0,4.68-1.53,7.97-4.58ZM127.29,120.03c.56-1.17.85-2.21.85-3.1,0-.75-.24-1.13-.71-1.13-.28,0-.6.08-.95.25-.35.17-.62.34-.81.53l-.35.28c-1.46,1.27-3.28,3.59-5.47,6.95-2.19,3.36-3.28,5.51-3.28,6.45,0,.19.05.28.14.28.28,0,.9-.24,1.87-.71.96-.47,2.35-1.57,4.16-3.31,1.81-1.74,3.33-3.9,4.55-6.49Z"/>
      <g>
        <path class="cls-1" d="M124.11,136.16c3.8-3.62,7.23-7.58,10.7-11.54.11-.1.24-.21.41-.2.32.06.23.5.23.68-.07,1.01-.62,1.96-1.3,2.68,0,0-2.65,2.91-2.65,2.91-3.6,3.81-7.14,7.75-11.4,10.85-10.37,7.85-14.83,4.22-11.09-7.98,3.15-8.55,9.31-16.75,18.09-19.99,2.12-.7,6.49-2.09,7.68.61,1.42,7.53-12.6,16.65-18.81,18.81,0,0-.05.03-.05.02,0-.01-.12.09-.2.26-.41,1.15-.9,2.88-.97,4.27-.53,4.34,3.33,2.59,5.57,1.1,1.23-.83,2.38-1.81,3.48-2.83l.33.35h0ZM124.46,136.54c-6.05,5.88-13.57,7.71-9.57-3.62.11-.33.56-.75.75-.76,6.5-2.45,16.65-8.92,18.45-15.97,1.18-5.53-8.01-1.7-10.3-.38-6.74,3.9-11.61,10.7-14.29,17.92-3.6,11.75.22,15,10.36,7.49,4.25-3.06,7.8-6.97,11.41-10.74,0,0,2.66-2.89,2.66-2.89.66-.7,1.18-1.55,1.26-2.51.01-.15.03-.34,0-.42.06-.03-.13.02-.23.13-3.49,3.88-6.99,7.82-10.83,11.4l.33.35h0Z"/>
        <path class="cls-1" d="M128.01,117.27c.08-.59,0-1.55-.84-1.31-1.82.53-2.94,2.27-4.12,3.66-2.28,3.19-4.78,6.56-6.1,10.25-.03.15-.05.29-.05.41-.02.05.07.1-.07-.04-.03-.03-.16-.04-.09-.04,2.27-.61,3.98-2.33,5.64-3.91,2.59-2.42,4.22-5.81,5.62-9.02h0ZM127.74,120.24c-1.19,2.46-2.77,4.77-4.79,6.64-1.81,1.64-3.75,3.54-6.25,3.99-1.48-.35,1.05-4.11,1.43-4.85,2.17-3.37,4.37-6.99,7.43-9.56,3.51-2.56,2.94,1.54,1.75,3.57,0,0,.43.21.43.21h0Z"/>
      </g>
    </g>
    <g>
      <path class="cls-1" d="M157.61,111.28c-.05,1.32-3.6,6.98-10.65,16.99-.14.19-.21.33-.21.42,0,.33.61.49,1.83.49,2.3,0,4.87-1.67,7.69-5.01.04-.05.12-.07.21-.07.23,0,.35.24.35.71,0,.52-.56,1.41-1.69,2.68-2.02,2.26-4.49,3.38-7.4,3.38-.47,0-.89-.04-1.27-.11s-.66-.14-.85-.21c-.19-.07-.31-.11-.35-.11l-.35.21c-2.63,3.2-5.05,5.98-7.26,8.36s-3.78,3.96-4.72,4.76l-1.34,1.13c-.75.56-1.34.85-1.76.85-.56,0-.85-.45-.85-1.34,0-3.1,1.23-8.07,3.7-14.91,2.47-6.84,4.24-11.13,5.32-12.87,1.5-2.4,3.36-3.6,5.57-3.6.33,0,.49.17.49.49,0,.24-.19.73-.56,1.48-4.09,8.51-6.63,15.77-7.62,21.79,0,.52.09.78.28.78s.47-.16.85-.49c2.02-1.46,4.3-4,6.84-7.62.09-.14.14-.3.14-.49-.19-.42-.28-.99-.28-1.69,0-2.82,1.42-5.96,4.27-9.41s5.72-5.72,8.64-6.8c.28-.09.47-.14.56-.14.28,0,.42.12.42.35Z"/>
      <path class="cls-1" d="M157.72,110.57c-.16,2.24-1.7,4.07-2.75,5.97-2.11,3.41-5.09,7.74-7.38,11.07-.12.22-.76.95-.69,1.14.22.28.88.28,1.26.31,3.36.13,5.94-2.62,8-4.97.18-.17.47-.17.66.02.6,1.1-.38,2.01-.95,2.82-1.22,1.56-2.82,2.9-4.73,3.58-1.87.67-3.97.8-5.86.16,0,0,.1-.03.1-.03,0-.01-.5.32-.3.17-2.14,2.13-13.27,16.69-15.8,15.06-2.78-2.62,6.41-26.32,8.77-29.87,1.12-1.69,2.95-3.16,5.11-3.27,1.25-.18,1.53.66,1.01,1.72-3.39,7.17-6.55,14.62-7.87,22.44,0-.19,0,.31.05.38.02-.03-.21-.11-.18-.08.02,0,.15-.06.25-.13,2.62-1.9,4.72-4.52,6.61-7.15.07-.1.41-.58.47-.67.04-.07.06-.15.06-.24,0,0,.04.18.04.18-1.65-5.95,4.24-12.47,8.46-16.02,1.51-1.13,3.09-2.2,4.95-2.67.15-.06.46-.05.7.1h0ZM157.51,111.57s-.4-.3-.4-.3c-.03-.02.05.14.12.16-5.56,1.58-14.51,11.22-12.82,17.37.12.35-.05.76-.27,1.05-.25.37-.94,1.28-1.21,1.65-1.62,2.13-3.55,4.39-5.63,5.9-.9.86-1.89.85-1.8-.66,1.39-7.95,4.59-15.38,8.03-22.58.09-.26.27-.56.17-.75-.02-.03-.3,0-.49,0-1.93.1-3.53,1.37-4.62,2.96-1.85,2.15-12.27,29.12-8.58,29.13.76-.18,1.46-.78,2.12-1.35,2.05-1.69,3.84-3.65,5.64-5.59,0,0,7-8.01,7-8.01.02-.04.37-.22.4-.25,0,0,.06-.04.06-.04h.04c3.78,1.29,7.99-.4,10.33-3.55.48-.66,1.37-1.55.97-2.39-.02-.04-.12-.05-.18-.02-.02.03-.15.17-.18.21-2.21,2.5-5.17,5.38-8.82,4.74-.24-.07-.54-.07-.73-.4-.1-.35.16-.53.3-.77.28-.38,1-1.41,1.28-1.81,1.98-2.85,4.82-6.88,6.64-9.78.95-1.59,2.07-3.14,2.64-4.91h0Z"/>
    </g>
    <g>
      <path class="cls-1" d="M179.83,119.11c.42.09.63.24.63.42,0,.28-.19.61-.56.99-.52.52-1.28,1.2-2.29,2.04-1.01.85-1.61,1.36-1.8,1.55l-.99,1.34c-.99,2.77-2.5,5.65-4.55,8.64-2.04,2.99-4.54,5.61-7.47,7.86-2.94,2.26-5.75,3.38-8.43,3.38-3.34,0-5.01-2.04-5.01-6.13,0-3.62,1.17-7.53,3.53-11.74s5.39-7.8,9.13-10.79,7.42-4.48,11.04-4.48c2.63,0,3.95,1.03,3.95,3.1,0,1.13-.56,2.66-1.69,4.58-.05.05-.07.12-.07.21s.05.14.14.14c1.74-.71,3.22-1.08,4.44-1.13ZM173.13,120.8c.38-1.65.56-2.91.56-3.81,0-1.97-.66-2.96-1.97-2.96-1.83,0-4.11,1.69-6.84,5.08-2.73,3.38-5.07,7.19-7.02,11.42-1.95,4.23-2.93,7.57-2.93,10.01,0,1.79.63,2.68,1.9,2.68,1.97,0,4.34-1.97,7.09-5.92,2.75-3.95,4.41-7.92,4.97-11.92-.05-.09-.07-.23-.07-.42,0-1.36,1.22-2.59,3.67-3.67.38-.14.59-.3.63-.49Z"/>
      <g>
        <path class="cls-1" d="M178.46,118.78s1.37.31,1.37.31c.29.06.74.19.65.56-.26.92-1.22,1.4-1.84,2.06-.9.83-1.89,1.69-2.76,2.45,0-.02-1.03,1.44-.96,1.32-2.55,6.92-7.05,13.21-13.15,17.47-2.96,1.97-7.24,3.8-10.59,1.72-3.03-2.6-2.14-7.28-1.35-10.71,2.76-9.58,12.21-21.59,22.85-22.2,6-.31,5.51,4.63,2.99,8.45.2-.17-.11-.49-.27-.46,0,0-.18.04-.18.04,1.05-.43,2.13-.8,3.25-1.01h0ZM180.43,119.55c-1.68.07-3.31.49-4.87,1.13-.17.07-.41.05-.62-.14-.17-.17-.18-.35-.18-.45,0-.13.02-.35.21-.55l-.07.09c2-3.15,3.01-7.28-2.21-7-11.28.46-23.16,15.99-23.04,26.86-.06,4.49,2.67,6.37,6.95,5.34,8.65-2.58,14.88-11.35,18.13-19.43,0,0,0-.02.01-.03,0,0,1-1.33,1-1.33.95-.81,1.91-1.61,2.83-2.43.62-.66,1.67-1.14,1.86-2.08h0Z"/>
        <path class="cls-1" d="M173.11,120.8c.32-1.95,1.03-4.25-.06-6.05-1.54-1.6-3.99.34-5.29,1.47-4.95,4.86-8.42,11.11-10.96,17.51-.68,1.92-3.01,8.32-.33,9.14,2.01.19,3.61-1.51,4.91-2.9,3.54-4.17,6.32-9.21,7.06-14.64,0,0,.05.27.05.27-.47-1.42.51-2.64,1.52-3.43.54-.48,2.29-1.36,2.64-1.48,0,0,.46.11.46.11h0ZM172.96,121.62c-1.46.71-3.77,1.66-3.65,3.56,0,0,.08.03.08.03l-.04.24c-.85,5.67-3.75,10.77-7.43,15-1.51,1.63-4.41,4.38-6.66,2.45-3.04-5,5.9-19.76,9.42-23.84,5.05-6.52,11.31-8.05,8.27,2.56h0Z"/>
      </g>
    </g>
    <g>
      <path class="cls-1" d="M233.98,91.12c0,1.08-.59,2.63-1.76,4.65-1.17,2.02-2.96,4.54-5.36,7.54-2.4,3.01-4.63,5.75-6.7,8.22-2.07,2.47-4.76,5.63-8.07,9.48-3.31,3.85-5.75,6.7-7.3,8.53-3.06,3.62-5.95,6.8-8.67,9.55-2.73,2.75-4.7,4.6-5.92,5.54l-1.76,1.41c-.42.38-.85.56-1.27.56-.56,0-.85-.45-.85-1.34,0-3.48,1.13-9.61,3.38-18.4,1.41-5.5,3.1-10.97,5.08-16.4s3.6-9.46,4.87-12.09l1.9-4.02c.71-1.41,1.66-2.54,2.86-3.38,1.2-.85,2.22-1.27,3.07-1.27.66,0,.99.24.99.71,0,.09-.05.28-.14.56-.75,1.88-1.73,4.4-2.93,7.54-1.2,3.15-3,8.59-5.39,16.32-2.4,7.73-4.02,14.28-4.87,19.64.05.75.28,1.13.71,1.13.24,0,.56-.21.99-.63,3.9-3.71,8.44-8.93,13.61-15.65,8.84-11.57,13.73-20.17,14.67-25.81,0-1.32.79-2.3,2.36-2.96,1.58-.66,3.07-.99,4.48-.99s2.04.52,2.04,1.55Z"/>
      <path class="cls-1" d="M234,91.12c-.49,3.83-3.26,6.94-5.38,10.03-1.97,2.65-5.09,6.34-7.18,8.97-10.01,11.59-19.23,23.94-30.61,34.26,0,0-2.24,1.8-2.24,1.8-.76.76-2.36,1.08-2.47-.49.03-5.81,1.59-11.42,2.87-17.03,1.81-7.45,4.14-14.78,6.87-21.94,1.34-3.59,2.81-7.15,4.51-10.59,1.09-2.71,2.83-5.34,5.68-6.44.86-.42,2.96-.57,2.66.91-.12.6-.32.96-.48,1.43-.74,1.92-1.84,4.78-2.58,6.7-.56,1.72-3.84,11.68-4.48,13.63-2.39,7.25-4.43,14.65-5.67,22.18,0,0,0-.09,0-.09.03.3.05.61.24.75.04.01.07.02.13,0,2.87-2.37,5.4-5.47,7.89-8.29,5.69-6.78,11.1-13.88,15.68-21.45,2.2-3.76,4.36-7.74,5.17-12.03-.14-.68.66-2.28,1.55-2.74,1.93-1.22,8.14-3.21,8.31.42,0,0-.48,0-.48,0h0ZM233.48,91.12c-.05-2.29-5.71-.39-6.76.38-.75.5-1.17,1.24-1.15,2.1-2,8.82-7.72,16.17-12.85,23.4-4,5.35-8.19,10.57-12.79,15.43-.77.81-1.56,1.6-2.36,2.38-.46.38-.94,1.14-1.77,1.2-.8,0-1.09-.97-1.06-1.58,1.27-7.58,3.35-14.99,5.77-22.27.67-2,3.94-11.86,4.53-13.64.52-1.33,1.56-4.02,2.08-5.35.26-.67.81-1.97.98-2.61.14-.44-.17-.48-.54-.52-3.36.29-5.47,3.48-6.65,6.37-1.7,3.43-3.17,6.94-4.52,10.53-2.75,7.14-5.1,14.43-6.93,21.86-1.29,5.53-2.86,11.17-2.92,16.86.07,1.15,1.21.81,1.8.23,0,0,2.25-1.79,2.25-1.79,11.38-10.23,20.64-22.61,30.71-34.09,2.1-2.62,5.24-6.27,7.24-8.92,2.14-3.06,4.92-6.15,5.43-9.95,0,0-.48,0-.48,0h0Z"/>
    </g>
    <g>
      <path class="cls-1" d="M224.25,136.18c2.49-2.3,6.06-6.11,10.72-11.42.14-.14.26-.21.35-.21s.14.09.14.28c0,.89-.35,1.76-1.06,2.61-3.48,3.86-6.56,7.08-9.24,9.66-1.97,1.97-4.33,3.87-7.05,5.68-2.73,1.81-4.98,2.71-6.77,2.71-2.16,0-3.24-1.51-3.24-4.51,0-4.98,1.84-10.2,5.54-15.65,3.69-5.45,7.96-9.14,12.8-11.07,2.02-.85,3.85-1.27,5.5-1.27,1.83,0,2.75.73,2.75,2.19,0,2.73-1.93,5.85-5.78,9.38-3.85,3.53-8.18,6.21-12.97,8.04-.19.05-.35.21-.49.49-.71,1.93-1.06,3.64-1.06,5.15,0,1.69.63,2.54,1.9,2.54,2.02,0,4.68-1.53,7.97-4.58ZM227.42,120.03c.56-1.17.85-2.21.85-3.1,0-.75-.24-1.13-.71-1.13-.28,0-.6.08-.95.25-.35.17-.62.34-.81.53l-.35.28c-1.46,1.27-3.28,3.59-5.46,6.95-2.19,3.36-3.28,5.51-3.28,6.45,0,.19.05.28.14.28.28,0,.9-.24,1.87-.71.96-.47,2.35-1.57,4.16-3.31,1.81-1.74,3.33-3.9,4.55-6.49Z"/>
      <g>
        <path class="cls-1" d="M224.23,136.16c3.8-3.62,7.23-7.58,10.7-11.54.11-.1.24-.21.41-.2.32.06.23.5.23.68-.07,1.01-.62,1.96-1.3,2.68,0,0-2.65,2.91-2.65,2.91-3.61,3.81-7.14,7.75-11.4,10.85-10.37,7.85-14.83,4.22-11.09-7.98,3.15-8.55,9.31-16.75,18.09-19.99,2.12-.7,6.49-2.09,7.68.62,1.42,7.53-12.6,16.65-18.81,18.81,0,0-.06.03-.05.02,0-.01-.12.09-.2.26-.41,1.15-.9,2.88-.97,4.27-.53,4.34,3.33,2.59,5.57,1.1,1.23-.83,2.38-1.81,3.48-2.83,0,0,.33.35.33.35h0ZM224.59,136.54c-6.05,5.88-13.57,7.71-9.57-3.62.11-.33.56-.75.75-.76,6.5-2.45,16.65-8.92,18.45-15.97,1.18-5.53-8.01-1.7-10.3-.38-6.74,3.9-11.61,10.71-14.3,17.92-3.6,11.75.22,15,10.36,7.49,4.25-3.06,7.8-6.97,11.41-10.74,0,0,2.66-2.89,2.66-2.89.66-.7,1.18-1.55,1.26-2.51.01-.15.03-.34,0-.42.06-.03-.13.02-.23.13-3.49,3.88-6.99,7.82-10.83,11.4l.33.35h0Z"/>
        <path class="cls-1" d="M228.14,117.26c.08-.59,0-1.55-.84-1.31-1.82.53-2.94,2.27-4.12,3.66-2.28,3.19-4.78,6.56-6.1,10.25-.03.15-.05.29-.05.41-.02.05.07.1-.07-.04-.03-.03-.16-.04-.09-.04,2.27-.61,3.98-2.33,5.64-3.91,2.59-2.42,4.22-5.81,5.62-9.02h0ZM227.87,120.24c-1.19,2.46-2.77,4.77-4.78,6.64-1.81,1.64-3.75,3.53-6.25,3.99-1.48-.35,1.05-4.11,1.43-4.85,2.17-3.37,4.37-6.99,7.43-9.56,3.51-2.56,2.94,1.54,1.75,3.57,0,0,.43.21.43.21h0Z"/>
      </g>
    </g>
    <g>
      <path class="cls-1" d="M244.91,135.89c-.85,2.3-2.19,4.24-4.02,5.82-1.83,1.58-3.54,2.64-5.11,3.21-1.58.56-3,.85-4.27.85-3.43,0-5.15-1.34-5.15-4.02s1.51-5.19,4.51-7.4c1.41-1.03,2.94-1.72,4.58-2.04.23,0,.35.09.35.28,0,.09-.05.19-.14.28-1.18.89-2.29,2.28-3.35,4.16-1.06,1.88-1.59,3.53-1.59,4.94s.59,2.12,1.76,2.12c.94,0,1.87-.39,2.79-1.16.92-.78,1.61-1.56,2.08-2.36l.71-1.13c.94-1.5,1.73-3.9,2.36-7.19.63-3.29,1.05-6.21,1.23-8.74l.21-3.81c0-.38-.07-.56-.21-.56l-.28.14-6.98,8.18c-.52.61-.87.92-1.06.92-.24,0-.35-.16-.35-.49,0-.61.16-1.08.49-1.41l.63-.78c5.36-6.02,8.42-9.66,9.17-10.93.71-1.08,1.74-2.02,3.1-2.82,1.32-.75,2.87-1.13,4.65-1.13.47,0,.71.19.71.56,0,.24-.19.45-.56.63-.14.05-.32.15-.53.32-.21.17-.59.55-1.13,1.16-.54.61-1.02,1.32-1.45,2.12-.42.8-.8,1.92-1.13,3.35-.33,1.43-.49,3.02-.49,4.76,0,5.41-.52,9.47-1.55,12.2Z"/>
      <path class="cls-1" d="M246.37,131.9l-1.44,4c-1.66,4.61-5.84,8.22-10.51,9.56-6.26,1.74-10.51-1.6-6.97-7.85,1.84-2.73,4.72-4.83,7.97-5.5.57-.08.77.58.37.9-2.52,2.18-4.59,5.53-4.83,8.89-.15,2.23,1.89,2.3,3.39,1.38,4.46-3.02,5.46-8.82,6.29-13.81.56-3.24.79-6.53.93-9.81,0-.1,0-.25-.04-.32,0,0,.07.08.14.07,0,0,.14-.03.14-.03,0,0-.28.14-.28.14.46-.45-4.67,5.52-4.56,5.41,0,0-2.33,2.75-2.33,2.75-.39.4-.59.81-1.22,1-.86.07-.85-.99-.69-1.55.04-.3.35-.81.49-.92,2.83-3.36,5.8-6.56,8.51-10,1.85-2.87,4.3-5.47,7.92-5.77.76-.01,1.8-.38,2.38.35.46.71-.16,1.39-.66,1.59-6.12,4.5-3.67,13.03-4.98,19.52h0ZM243.15,139.16l1.29-3.44c2.83-6.93-.27-15.38,4.14-21.77.71-.85,1.42-1.85,2.47-2.37,0,0-.06.02-.06.02.21-.09.36-.26.33-.25,0,0-.01-.11-.01-.09,0,0,0-.02-.08-.03-.39-.04-1.05,0-1.49.05-3.47.29-5.59,2.73-7.4,5.43-2.74,3.44-5.76,6.65-8.6,9.99-.32.27-.44.96-.38,1.31.03.04-.05-.03-.03,0-.04.02.12-.06.2-.15,1.89-2.02,5.75-6.68,7.62-8.81,0,0,.04-.05.04-.05l.06-.03.28-.14.06-.03c.82-.02.57,1.04.57,1.55-.09,1.29-.13,2.69-.25,3.97-.82,6.05-1.21,12.71-5.25,17.62-1.24,1.51-4.46,3.74-5.89,1.35-1.07-3.48,2.19-8.43,4.8-10.58.04-.07.17-.22-.09-.22-2.95.57-5.99,2.68-7.73,5.3-3.43,6.02.6,9.04,6.63,7.46,3.5-.91,6.63-3.22,8.79-6.09h0Z"/>
    </g>
    <g>
      <path class="cls-1" d="M263.45,132.16l2.19-3.74c0-.14-.05-.21-.14-.21s-.21.07-.35.21c-1.74,2.02-3.55,3.98-5.43,5.89-1.88,1.9-3.31,3.3-4.3,4.2l-1.55,1.34c-3.67,3.48-6.21,5.22-7.62,5.22-.66,0-.99-.42-.99-1.27,0-.94.39-2.37,1.16-4.3.78-1.93,1.56-3.64,2.36-5.15l1.13-2.19c3.95-7.38,6.86-12.32,8.74-14.81.94-1.22,2.09-2.25,3.46-3.07,1.36-.82,2.42-1.23,3.17-1.23.47,0,.71.17.71.49,0,.19-.09.45-.28.78-.09.19-1.06,1.75-2.89,4.69-1.83,2.94-3.31,5.47-4.44,7.58-3.1,5.69-4.65,8.96-4.65,9.8,0,.33.14.49.42.49.42,0,1.15-.42,2.19-1.27,3.06-2.63,6.42-6.18,10.08-10.65,2.02-2.16,4.14-4.98,6.35-8.46,1.5-2.3,3.5-3.46,5.99-3.46.42,0,.63.19.63.56l-.56,1.34c-.66,1.17-2.13,3.75-4.41,7.72-2.28,3.97-3.58,6.24-3.91,6.81-1.93,3.38-2.89,5.62-2.89,6.7,0,.42.14.63.42.63.47,0,1.97-1.17,4.51-3.53,1.97-1.97,4.58-4.82,7.83-8.53.14-.14.26-.21.35-.21s.14.09.14.28c0,.89-.35,1.76-1.06,2.61-3.48,3.86-6.56,7.08-9.24,9.66-1.83,1.74-3.89,3.48-6.17,5.22-2.28,1.74-3.94,2.61-4.97,2.61-.71,0-1.06-.49-1.06-1.48,0-.56.42-1.79,1.27-3.67.85-1.88,1.69-3.62,2.54-5.22l1.27-2.4Z"/>
      <path class="cls-1" d="M263.44,132.15l2.17-3.75c-.02-.28-.29-.11-.43.05,0,0-5.44,5.95-5.44,5.95-.93.91-3.41,3.35-4.32,4.24-1.88,1.41-7.71,7.92-9.96,6.26-2.34-2.96,10.19-23.51,12.65-27.12,1.55-2.24,3.81-3.98,6.45-4.84,1.79-.44,2.05.61,1.08,1.92-.31.52-2.28,3.7-2.64,4.3-2.78,4.8-6.46,10.83-8.6,15.9-.21.63-.97,2.11.37,1.33,4.08-2.87,7.31-6.85,10.57-10.59,2.68-3.03,5.12-6.16,7.25-9.61,1.3-2.07,3.64-3.54,6.14-3.48.19,0,.44,0,.68.18.28.21.34.53.32.78,0,0-.02.06-.02.06,0,0-.56,1.34-.56,1.34.02,0-5.44,9.54-5.43,9.55-1.78,3.42-4.91,7.69-5.7,11.43-.03.19.03.39.04.38,2.09-1.22,4-3.17,5.67-5,1.72-1.89,4.77-5.23,6.49-7.08.21-.15.32-.29.72-.19.3.14.32.36.35.45.25,2.31-2.09,4.01-3.38,5.57-3.73,4.03-7.51,8.04-11.84,11.44-2.03,1.46-4.1,3.6-6.77,3.77-1.79-.19-1.43-2.62-1-3.53.92-2.53,2.33-5.08,3.47-7.52,0,0,1.28-2.43,1.28-2.43l.42.23h0ZM263.89,132.4c-1.62,3.1-3.46,6.55-4.72,9.78-2.32,6.73,9.2-3.68,10.45-4.81,2.65-2.48,5.17-5.12,7.64-7.78,1.08-1.32,3.29-2.96,3.19-4.82,0-.02-.02.07.17.17.19.04.15,0,.17,0-1.69,1.77-4.83,5.22-6.53,7.06-1.7,1.87-3.55,3.69-5.72,5.04-.19.1-.72.31-1.09-.11-.57-1,.07-2.07.37-3.01,1.24-2.97,3.66-6.82,5.26-9.65-.03.05,5.53-9.63,5.43-9.46,0,0,.57-1.34.57-1.34,0,0-.03.13-.03.13,0-.26-.09-.2-.33-.23-2.3-.05-4.38,1.25-5.61,3.17-2.82,4.59-6.42,8.66-9.98,12.69-.96.94-9.23,10.53-9.68,7.18.15-1.23.8-2.29,1.28-3.4,1.98-4.24,5.46-10.01,7.87-14.09.67-1.15,2.54-3.98,3.12-5.12.29-.75-.63-.54-1.07-.46-2.47.79-4.73,2.48-6.23,4.65-1.58,2.1-17.09,27.35-11.95,26.91,3.53-1,6-4.21,8.81-6.42.9-.87,3.41-3.29,4.34-4.2,0,0,5.49-5.9,5.49-5.9.16-.21.6-.38.56.05,0,0-2.2,3.73-2.2,3.73l.42.23h0Z"/>
    </g>
    <g>
      <path class="cls-1" d="M303.15,111.28c-.05,1.32-3.6,6.98-10.65,16.99-.14.19-.21.33-.21.42,0,.33.61.49,1.83.49,2.3,0,4.87-1.67,7.69-5.01.05-.05.12-.07.21-.07.24,0,.35.24.35.71,0,.52-.56,1.41-1.69,2.68-2.02,2.26-4.49,3.38-7.4,3.38-.47,0-.89-.04-1.27-.11-.38-.07-.66-.14-.85-.21-.19-.07-.31-.11-.35-.11l-.35.21c-2.63,3.2-5.05,5.98-7.26,8.36-2.21,2.37-3.78,3.96-4.72,4.76l-1.34,1.13c-.75.56-1.34.85-1.76.85-.56,0-.85-.45-.85-1.34,0-3.1,1.23-8.07,3.7-14.91,2.47-6.84,4.24-11.13,5.32-12.87,1.5-2.4,3.36-3.6,5.57-3.6.33,0,.49.17.49.49,0,.24-.19.73-.56,1.48-4.09,8.51-6.63,15.77-7.62,21.79,0,.52.09.78.28.78s.47-.16.85-.49c2.02-1.46,4.3-4,6.84-7.62.09-.14.14-.3.14-.49-.19-.42-.28-.99-.28-1.69,0-2.82,1.42-5.96,4.27-9.41,2.84-3.46,5.72-5.72,8.64-6.8.28-.09.47-.14.56-.14.28,0,.42.12.42.35Z"/>
      <path class="cls-1" d="M303.28,110.58c-.39,2.86-2.49,5.28-3.9,7.74-2.08,3.25-4.52,6.78-6.73,9.97-1.11,1.06,2.38.79,2.85.57,2.55-.77,4.49-2.81,6.19-4.77.92-.58,1.03.96.59,1.57-1.65,2.75-4.42,4.99-7.68,5.34-1.22.16-2.63.07-3.78-.33,0,0,.1-.03.1-.03,0,0-.5.32-.3.17-3.37,3.79-8.76,10.55-12.64,13.73-8.67,7.55.41-16.37,1.29-18.74,1.97-4.39,3.32-11.76,8.73-12.98,1.4-.3,2.47-.06,1.71,1.62-3.37,7.06-6.61,14.91-7.87,22.38-.01.16.02.36.05.45.02-.03-.21-.11-.18-.08,2.77-1.81,4.9-4.62,6.86-7.28.07-.1.41-.58.47-.67.04-.07.06-.14.06-.24,0,0,.04.18.04.18-1.64-5.96,4.24-12.46,8.46-16.02,1.51-1.13,3.09-2.2,4.95-2.67.16-.07.48-.05.72.11h0ZM303.06,111.6s-.4-.33-.4-.33c-.03-.02.05.14.12.16-5.56,1.58-14.51,11.22-12.82,17.37.12.35-.05.76-.27,1.05-.25.37-.94,1.28-1.21,1.65-1.62,2.13-3.55,4.39-5.63,5.9-.85.82-1.85.9-1.81-.59,1.37-7.97,4.59-15.43,8.04-22.65.09-.26.27-.56.17-.75-.21-.02-.83,0-1.11.07-4.96,1.07-6.42,8.43-8.29,12.52-2.09,5.79-4.49,11.62-5.04,17.79-.32,2.93,1.6,1.45,2.87.36,3.85-3.12,9.3-9.89,12.66-13.63.07-.05.38-.22.44-.27,3.67,1.24,7.75-.26,10.12-3.25.56-.76,1.62-1.69,1.23-2.69-.06-.08-.2-.02-.18-.03-2.31,2.65-5.57,5.9-9.41,4.84-.15-.05-.41-.24-.34-.52,0-.22,2.42-3.46,2.58-3.75,2.86-4.33,6.24-8.48,8.3-13.27h0Z"/>
    </g>
    <g>
      <path class="cls-1" d="M304.28,137.09c-5.5,5.17-9.03,7.76-10.58,7.76-.8,0-1.2-.54-1.2-1.62s.42-2.66,1.27-4.72c.85-2.07,1.69-3.88,2.54-5.43l1.27-2.26c3.57-6.25,6.28-10.74,8.11-13.47.8-1.17,1.82-2.17,3.07-3,1.25-.82,2.41-1.23,3.49-1.23.38,0,.56.17.56.49,0,.24-.17.68-.49,1.34-.56,1.03-1.95,3.5-4.16,7.4-2.21,3.9-3.53,6.25-3.95,7.05-1.93,3.38-2.89,5.64-2.89,6.77,0,.42.14.63.42.63.47,0,1.97-1.17,4.51-3.53,1.97-1.97,4.58-4.82,7.83-8.53.14-.14.26-.21.35-.21s.14.09.14.28c0,.89-.35,1.76-1.06,2.61-3.48,3.86-6.56,7.08-9.24,9.66ZM313.66,109.1c-1.18,0-1.76-.71-1.76-2.12,0-1.32.49-2.64,1.48-3.98.99-1.34,2.07-2.01,3.24-2.01,1.41,0,2.12.8,2.12,2.4,0,1.32-.54,2.6-1.62,3.84-1.08,1.25-2.23,1.87-3.46,1.87Z"/>
      <g>
        <path class="cls-1" d="M304.3,137.11c-2.61,2.44-5.2,4.94-8.21,6.89-.77.46-1.6.99-2.54.97-2.67-.52-.12-5.86.46-7.42.91-2.21,2-4.35,3.19-6.41,3.04-5.13,5.71-10.53,9.37-15.26,1.48-1.51,3.36-2.9,5.54-3.02,1.13-.1,1.13.89.75,1.62-.21.55-.98,1.85-1.27,2.39-1.29,2.39-7.55,13.43-8.62,15.64-.54,1.25-1.35,2.61-1.24,3.93.04.06-.02,0,0,.02,0,0,.11-.03.22-.09,2.83-1.69,6.58-6.19,8.83-8.63.43-.48,2.62-2.88,3.02-3.31.62-.63,1.32-.21,1.2.6-.04,1.33-.85,2.45-1.74,3.37-.75.84-2.84,3.1-3.63,3.95-1.64,1.74-3.3,3.45-5.02,5.13l-.33-.35h0ZM303.94,136.73c2.92-2.79,5.93-5.98,8.67-8.96.78-.79,1.57-1.82,1.53-2.97.02-.03-.06-.04.11.13.29.12.25.02.26.05-.01,0-.05.04-.09.07-.36.38-2.61,2.82-3.02,3.27-1.72,1.86-5.56,6.19-7.57,7.63-.68.46-2.16,2.03-2.79.74-.27-1.64.71-3.1,1.3-4.5,1.07-2.17,7.46-13.26,8.75-15.6.39-.79,1.4-2.17,1.46-3.04-.04-.2-.21-.14-.41-.15-2.03.11-3.8,1.42-5.19,2.82-3.63,4.65-6.36,10.04-9.41,15.1-1.79,3.08-3.39,6.29-4.47,9.68-.27,1.05-.68,2.37-.14,3.36,1.79,2.02,9.68-5.89,11.36-7.28,0,0-.33-.35-.33-.35h0Z"/>
        <path class="cls-1" d="M313.66,109.12c-2.51.11-2.07-3.3-1.29-4.82.86-1.76,2.34-3.73,4.55-3.59,1.15-.03,2.11,1.07,2.14,2.18.29,3.03-2.24,6.53-5.39,6.71,0,0,0-.48,0-.48h0ZM313.66,108.6c1.71.05,3.23-1.47,4.12-3.03,2.45-5.56-3.09-5.51-5.08-1.11-.75,1.41-1.38,4.49.96,4.62,0,0,0-.48,0-.48h0Z"/>
      </g>
    </g>
    <g>
      <path class="cls-1" d="M338.2,119.11c.42.09.63.24.63.42,0,.28-.19.61-.56.99-.52.52-1.28,1.2-2.29,2.04-1.01.85-1.61,1.36-1.8,1.55l-.99,1.34c-.99,2.77-2.5,5.65-4.55,8.64-2.04,2.99-4.54,5.61-7.47,7.86-2.94,2.26-5.75,3.38-8.43,3.38-3.34,0-5.01-2.04-5.01-6.13,0-3.62,1.17-7.53,3.53-11.74s5.39-7.8,9.13-10.79,7.42-4.48,11.04-4.48c2.63,0,3.95,1.03,3.95,3.1,0,1.13-.56,2.66-1.69,4.58-.05.05-.07.12-.07.21s.05.14.14.14c1.74-.71,3.22-1.08,4.44-1.13ZM331.5,120.8c.38-1.65.56-2.91.56-3.81,0-1.97-.66-2.96-1.97-2.96-1.83,0-4.11,1.69-6.84,5.08-2.73,3.38-5.07,7.19-7.02,11.42-1.95,4.23-2.93,7.57-2.93,10.01,0,1.79.63,2.68,1.9,2.68,1.97,0,4.34-1.97,7.09-5.92,2.75-3.95,4.41-7.92,4.97-11.92-.05-.09-.07-.23-.07-.42,0-1.36,1.22-2.59,3.67-3.67.38-.14.59-.3.63-.49Z"/>
      <g>
        <path class="cls-1" d="M336.83,118.78l1.37.31c.29.06.74.19.65.56-.26.92-1.22,1.4-1.84,2.06-.9.83-1.89,1.69-2.76,2.45,0-.02-1.03,1.44-.96,1.32-2.55,6.92-7.05,13.21-13.15,17.47-2.96,1.97-7.24,3.8-10.59,1.72-3.03-2.6-2.14-7.28-1.35-10.71,2.76-9.58,12.21-21.59,22.85-22.2,6-.31,5.51,4.63,2.99,8.45.2-.17-.11-.49-.27-.46,0,0-.18.04-.18.04,1.05-.43,2.13-.8,3.25-1.01h0ZM338.8,119.55c-1.68.07-3.31.49-4.87,1.13-.17.07-.41.05-.62-.14-.17-.17-.18-.35-.18-.45,0-.13.02-.35.21-.55l-.07.09c2-3.15,3.01-7.28-2.21-7-11.28.46-23.16,15.99-23.04,26.86-.06,4.49,2.67,6.37,6.95,5.34,8.65-2.58,14.88-11.35,18.13-19.43,0,0,0-.02.01-.03,0,0,1-1.33,1-1.33.95-.81,1.91-1.61,2.83-2.43.62-.66,1.67-1.14,1.86-2.08h0Z"/>
        <path class="cls-1" d="M331.48,120.8c.32-1.95,1.03-4.25-.06-6.05-1.54-1.6-3.99.34-5.29,1.47-4.95,4.86-8.42,11.11-10.96,17.51-.68,1.92-3.01,8.32-.33,9.14,2.01.19,3.61-1.51,4.91-2.9,3.54-4.17,6.32-9.21,7.06-14.64l.05.27c-.47-1.42.51-2.64,1.52-3.43.54-.48,2.29-1.36,2.64-1.48,0,0,.46.11.46.11h0ZM331.33,121.62c-1.46.71-3.77,1.66-3.65,3.56,0,0,.08.03.08.03l-.04.24c-.85,5.67-3.75,10.77-7.43,15-1.51,1.63-4.41,4.38-6.66,2.45-3.04-5,5.9-19.76,9.42-23.84,5.05-6.52,11.31-8.05,8.27,2.56h0Z"/>
      </g>
    </g>
  </g>
  <g>
    <path class="cls-1" d="M264.95,67.39l-.02,1.27-47.87-2.24c-.89-.04-1.63.66-1.65,1.55v.16c-.01.83.63,1.53,1.46,1.59l47.63,3.42-.02,1.09-47.68-.72c-.82-.01-1.49.64-1.5,1.46h0c-.01.8.61,1.46,1.4,1.5l47.77,2.48-.02,1.09-47.7.45c-.85,0-1.55.7-1.56,1.55h0c-.01.86.67,1.57,1.53,1.6l47.53,1.36v.85s-58.98,1.45-58.98,1.45c-.41,0-.8-.14-1.1-.41l-7.84-7.2c-.3-.28-.7-.43-1.12-.41l-123.06,4c-.57.02-1.11-.27-1.4-.75-3.9-6.5-4.12-12.74.27-18.65.31-.42.82-.65,1.34-.62,10.31.59,113.8,6.56,123,7.09.42.02.83-.12,1.14-.4l8.29-7.48c.33-.29.76-.44,1.2-.4l58.94,5.33Z"/>
    <path class="cls-1" d="M264.97,67.02s0,.35,0,.35c0,0-.01,1.29-.01,1.29,0,0,0,.02,0,.02h-.02c-11.73-.51-32.53-1.5-44.03-2.01,0,0-3.14-.14-3.14-.14-.52-.01-1.06-.12-1.49.16-.92.48-1.03,1.9-.28,2.56.38.37.91.39,1.42.42,0,0,3.14.22,3.14.22,4.05.28,14.67,1.04,18.84,1.33.04.02,25.21,1.77,25.25,1.79,0,0,0,.13,0,.13,0,0-.02,1.09-.02,1.09,0,0,0,.14,0,.14,0,0-.14,0-.14,0-11.66-.16-32.36-.47-43.79-.63-.63-.01-3.36-.05-3.91-.06-1.34-.02-1.8,1.85-.62,2.46.39.23.94.15,1.46.2l3.12.16c11.35.58,32.21,1.66,43.74,2.25,0,0,.19,0,.19,0,0,0,0,.19,0,.19,0,0-.02,1.09-.02,1.09v.19s-.2,0-.2,0c-13.13.12-34.03.35-46.94.47,0,0-.78,0-.78,0-1.25-.02-1.79,1.73-.76,2.43.4.31.88.26,1.37.28,0,0,3.13.09,3.13.09l6.26.18,12.51.35s25.02.7,25.02.7h.25s0,.26,0,.26c0,0-.01.85-.01.85v.25s-.25,0-.25,0c-4.72.11-56.13,1.42-59.09,1.48-.92,0-1.53-.86-2.16-1.38-1.19-1.09-3.58-3.28-4.77-4.38,0,0-1.19-1.09-1.19-1.09-.32-.29-.81-.78-1.16-1.01-.37-.23-1.03-.13-1.44-.12,0,0-1.62.05-1.62.05-35.74,1.18-84.05,2.78-119.73,3.97,0,0-.81.03-.81.03-.28.02-.66-.02-.95-.16-.58-.22-.96-.84-1.21-1.35-.55-.94-1.02-1.94-1.44-2.96-1.7-4.07-1.73-8.9.38-12.84.8-1.27,1.66-3.76,3.55-3.46.47.02,13.66.78,14.55.83,30.33,1.73,76.37,4.36,106.67,6.09.45-.02,1.78.22,2.16-.03.15-.09.41-.31.54-.44,1.93-1.71,5.92-5.37,7.81-7.05.37-.43,1.21-.79,1.81-.67,0,0,.81.07.81.07,2.79.21,53.92,4.99,58.02,5.35h0ZM264.93,67.76c-5.12-.46-55.33-4.88-58.87-5.23-.76-.11-1.07.45-1.7.97,0,0-2.41,2.17-2.41,2.17l-4.81,4.33-.3.27c-.71.77-2.15.46-3.06.43,0,0-3.23-.19-3.23-.19l-25.86-1.51c-23.72-1.37-67.15-3.92-90.5-5.27,0,0-1.62-.09-1.62-.09-.51-.07-.87.07-1.16.38-1.87,2.48-3.2,5.55-3.23,8.71-.08,3.42,1.2,6.79,2.97,9.69.38.62,1.3.46,1.92.45,35.66-1.14,84.02-2.69,119.74-3.83,0,0,1.62-.05,1.62-.05.54-.02,1.26-.1,1.74.2.43.25.91.78,1.28,1.1,0,0,1.19,1.1,1.19,1.1,1.19,1.09,3.58,3.29,4.77,4.38.31.25.86.84,1.17,1.04.35.28,1,.17,1.41.18,2.76-.05,54.19-1.31,58.26-1.4,0,0-.25.25-.25.25,0,0,.01-.85.01-.85,0,0,.25.26.25.26-8.43-.25-29.42-.86-37.54-1.1,0,0-6.26-.18-6.26-.18l-3.13-.09c-.53,0-1.18,0-1.63-.37-1.04-.72-.94-2.42.17-3.02.46-.29,1.12-.24,1.64-.24,0,0,3.13-.03,3.13-.03,4.05-.03,14.61-.13,18.78-.17,0,0,25.03-.22,25.03-.22l-.2.2.02-1.09.19.2c-11.66-.61-32.31-1.7-43.74-2.3,0,0-3.12-.16-3.12-.16-.52-.05-1.14.02-1.61-.25-1.49-.77-.88-3.13.78-3.1,2.49.03,7.64.12,10.17.16,8.06.13,29.24.46,37.53.59,0,0-.14.14-.14.14l.02-1.09c1.16.43-25.41-1.82-24.99-1.69-4.25-.31-14.75-1.08-18.84-1.38,0,0-3.14-.23-3.14-.23-.52-.02-1.12-.07-1.52-.46-.85-.75-.7-2.31.31-2.84.5-.3,1.08-.18,1.58-.17,0,0,3.14.15,3.14.15l6.29.3c8.1.39,29.4,1.42,37.73,1.82-.05.13,0-.9,0-.88h0Z"/>
  </g>
  <g>
    <path class="cls-1" d="M264.95,75.91c7.71,9.08,14.57,7.43,17.25,5.92,3.42-1.93-1.4-16.35.34-16.91,2.11-.69,8.9,20.66,14.21,19.96,4.96-.66,5.13-20.13,8.79-20.29,3.99-.18,6.8,22.71,11.5,22.66,4.26-.05,4.65-18.84,12.18-20.63,4.8-1.14,1.11,10.71,13.87,9.81"/>
    <path class="cls-1" d="M265.01,75.86c3.98,4.56,10.69,8.83,16.68,5.71.39-.18.53-.33.73-.61.55-.96.53-2.16.53-3.28-.1-3.21-.82-6.38-1.25-9.58-.07-1.05-.46-2.44.2-3.47,1.83-1.82,4.06,4.08,4.8,5.21,1.53,2.67,6.91,15.29,10.28,14.05,1.08-.61,1.68-2.27,2.13-3.48,1.78-4.94,1.84-10.6,4.26-15.43.65-1.2,2.2-1.96,3.5-1.08,1.89,1.48,2.5,3.74,3.35,5.8,1.66,4.49,2.87,9.37,4.84,13.62.53.96,1.03,2.19,1.97,2.6.84-.59,1.2-1.78,1.62-2.8,2.26-5.66,3.08-14.88,9.44-17.78,2.92-1.19,4.7.65,5.57,3.07,1.58,4.9,4.19,6.77,9.3,6.28,0,0,.25,3.47.25,3.47-6.57.5-10.65-2.37-12.53-8.56-.29-.72-.6-1.47-.87-1.48-.1-.03-.52.11-.64.14-4.72,2.27-5.91,11.1-7.96,15.84-.85,2.47-3.07,6-6.06,3.79-1.18-.92-1.84-2.25-2.43-3.48-2.73-5.89-3.45-12.51-6.53-18.09-.21-.31-.44-.56-.63-.64-1.35,1.4-1.66,3.9-2.24,5.85-1.02,3.9-1.6,8.16-3.58,11.85-4.81,7.51-10.2-4.75-12.19-8.54,0,0-2.12-4.38-2.12-4.38-.88-1.66-1.6-3.62-2.86-4.91-.04-.03-.02,0,.05,0,.1,0,.2-.06.22-.1-.2.75-.05,1.64.03,2.52.37,3.22,1.04,6.43,1.08,9.71-.04,1.47-.02,3.29-1.25,4.37-6.44,3.79-13.88-.87-17.82-6.08,0,0,.12-.1.12-.1h0Z"/>
  </g>
  <g>
    <path class="cls-1" d="M145.93,160.78l.02,1.27,47.87-2.24c.89-.04,1.63.66,1.65,1.55v.16c.01.83-.63,1.53-1.46,1.59l-47.63,3.42.02,1.09,47.68-.72c.82-.01,1.49.64,1.5,1.46h0c.01.8-.61,1.46-1.4,1.5l-47.77,2.48.02,1.09,47.7.45c.85,0,1.55.7,1.56,1.55h0c.01.86-.67,1.57-1.53,1.6l-47.53,1.36v.85s58.98,1.45,58.98,1.45c.41,0,.8-.14,1.1-.41l7.84-7.2c.3-.28.7-.43,1.12-.41l123.06,4c.57.02,1.11-.27,1.4-.75,3.9-6.5,4.12-12.74-.27-18.65-.31-.42-.82-.65-1.34-.62-10.31.59-113.8,6.56-123,7.09-.42.02-.83-.12-1.14-.4l-8.29-7.48c-.33-.29-.76-.44-1.2-.4l-58.94,5.33Z"/>
    <path class="cls-1" d="M145.95,161.15s.02.91.02.91c0,0-.02-.02-.02-.02,8.48-.41,29.57-1.42,37.73-1.82,0,0,6.29-.3,6.29-.3l3.14-.15c.5-.01,1.09-.13,1.58.17.49.26.82.79.85,1.34.18,1.22-.92,2.05-2.06,1.96,0,0-3.14.23-3.14.23-11.41.82-32.37,2.37-43.96,3.2,0,0,.13-.14.13-.14l.02,1.09s-.14-.14-.14-.14c8.43-.13,29.42-.46,37.53-.59,2.14-.03,7.33-.11,9.38-.15,0,0,.78-.01.78-.01,1.68-.03,2.27,2.33.78,3.1-.46.27-1.1.2-1.61.25,0,0-3.12.16-3.12.16-11.36.6-32.2,1.69-43.74,2.3,0,0,.19-.2.19-.2l.02,1.09-.2-.2c11.68.09,32.36.3,43.81.39,0,0,3.13.03,3.13.03.53,0,1.18-.04,1.64.24,1.12.59,1.21,2.3.17,3.02-.45.37-1.1.36-1.63.37,0,0-3.13.09-3.13.09l-6.26.18c-8.06.24-29.24.85-37.54,1.1,0,0,.25-.26.25-.26v.85s-.24-.25-.24-.25c4.33.1,55.34,1.33,58.26,1.4.42,0,1.05.09,1.41-.18.3-.2.86-.78,1.17-1.04,1.19-1.1,3.58-3.29,4.77-4.38,0,0,1.19-1.1,1.19-1.1.38-.33.85-.85,1.28-1.1.48-.3,1.2-.21,1.74-.2,0,0,1.62.05,1.62.05,30.33.97,76.44,2.44,106.79,3.41,0,0,12.94.41,12.94.41,0,0,.81.03.81.03.25.02.43-.01.63-.1.45-.19.62-.61.86-1.04,2.71-4.51,3.62-10.33,1.02-15.08-.46-.93-1.07-1.85-1.66-2.66-.29-.31-.65-.44-1.16-.38l-1.62.09c-35.61,2.07-83.92,4.89-119.6,6.97-.92.03-2.34.34-3.06-.43,0,0-.3-.27-.3-.27l-4.81-4.33-2.41-2.17c-.41-.34-.81-.81-1.12-.91-.35-.17-1.01,0-1.39.01-1.71.2-54.38,4.81-58.07,5.15h0ZM145.91,160.41c4.35-.39,55.04-5.1,58.02-5.35,0,0,.81-.07.81-.07.6-.12,1.44.23,1.81.67,1.86,1.68,5.9,5.33,7.81,7.05.12.14.38.35.54.44.38.25,1.73.02,2.16.03,30.29-1.73,76.36-4.36,106.67-6.09,0,0,12.93-.74,12.93-.74l1.62-.09c.56-.09,1.35.12,1.78.64,3.53,4.39,4.39,10.5,2.15,15.66-.42,1.01-.88,2.01-1.44,2.96-.26.51-.62,1.13-1.21,1.35-.51.24-1.23.14-1.76.13-23.19-.77-66.97-2.22-90.61-3-3.65-.12-27.72-.92-30.74-1.02-.42,0-1.06-.1-1.44.12-.17.1-.42.32-.57.46-1.07,1-3.09,2.82-4.18,3.83,0,0-2.39,2.19-2.39,2.19-.63.52-1.24,1.38-2.16,1.38-2.79-.06-54.62-1.37-59.09-1.48,0,0-.25,0-.25,0,0,0,0-.25,0-.25v-.85s-.02-.25-.02-.25c0,0,.25,0,.25,0,0,0,25.02-.7,25.02-.7,6.2-.2,16.57-.44,22.65-.64,1.63-.24,1.48-2.62-.15-2.68-.6,0-3.27-.04-3.91-.04-11.37-.1-32.26-.33-43.81-.44,0,0-.19,0-.19,0v-.19s-.02-1.09-.02-1.09c0,0,0-.19,0-.19,0,0,.19,0,.19,0,13.11-.67,33.97-1.75,46.86-2.41.52-.05,1.07.02,1.46-.2,1.19-.61.7-2.48-.62-2.46-.6,0-3.27.05-3.91.06-11.36.16-32.25.47-43.79.63,0,0-.14,0-.14,0,0,0,0-.14,0-.14,0,0-.02-1.09-.02-1.09,0,0,0-.13,0-.13,0,0,.13,0,.13,0l25.12-1.78c4.24-.3,14.76-1.04,18.84-1.33,0,0,3.14-.22,3.14-.22.51-.03,1.03-.05,1.42-.42.76-.66.64-2.09-.28-2.56-.44-.27-.97-.17-1.49-.16,0,0-3.14.14-3.14.14-11.43.5-32.42,1.49-44.03,2.01,0,0-.02,0-.02,0v-.02s-.01-1.29-.01-1.29c0,0,0-.35,0-.35h0Z"/>
  </g>
  <g>
    <path class="cls-1" d="M145.93,169.3c-7.71,9.08-14.57,7.43-17.25,5.92-3.42-1.93,1.4-16.35-.34-16.91-2.11-.69-8.9,20.66-14.21,19.96-4.96-.66-5.13-20.13-8.79-20.29-3.99-.18-6.8,22.71-11.5,22.66-4.26-.05-4.65-18.84-12.18-20.63-4.8-1.14-1.11,10.71-13.87,9.81"/>
    <path class="cls-1" d="M145.99,169.35c-3.87,5.05-10.75,9.51-17.22,6.44-.39-.16-.88-.53-1.1-.92-.71-1.15-.73-2.54-.75-3.81.04-3.28.7-6.49,1.08-9.71.07-.88.23-1.77.03-2.52.01.04.12.1.22.1.07.01.09-.02.05,0-1.26,1.29-1.98,3.25-2.86,4.91,0,0-2.12,4.38-2.12,4.38-1.98,3.78-7.39,16.05-12.19,8.54-1.97-3.7-2.56-7.96-3.58-11.85-.58-1.95-.89-4.45-2.23-5.85-.19.09-.42.33-.63.64-3.08,5.58-3.8,12.19-6.53,18.08-.59,1.24-1.25,2.56-2.43,3.48-2.97,2.21-5.21-1.31-6.06-3.79-2.06-4.76-3.22-13.55-7.96-15.84,0,0-.4-.12-.4-.12-.08,0-.21-.04-.24-.02-.12.01-.05,0-.11.03-.15.11-.5.75-.75,1.45-1.88,6.21-5.98,9.06-12.53,8.56,0,0,.25-3.47.25-3.47,5.16.47,7.7-1.38,9.3-6.28.88-2.4,2.61-4.26,5.57-3.06,6.35,2.89,7.18,12.12,9.44,17.78.42,1.01.78,2.21,1.62,2.8.94-.41,1.44-1.64,1.97-2.6,1.97-4.24,3.18-9.13,4.84-13.62.85-2.07,1.46-4.32,3.35-5.8,1.28-.87,2.85-.12,3.5,1.08,2.42,4.83,2.48,10.49,4.26,15.43.45,1.22,1.05,2.87,2.13,3.48,3.35,1.26,8.76-11.39,10.28-14.05.75-1.16,3.21-7.55,4.97-4.94.38,1.06.12,2.22.03,3.21-.22,1.63-.51,3.22-.75,4.82-.27,2.63-1.07,5.56.03,8.04.19.29.34.43.73.61,2.74,1.45,6.18,1.32,9.07.06,2.96-1.24,5.44-3.43,7.61-5.77,0,0,.12.1.12.1h0Z"/>
  </g>
</svg>